<svg width="24" height="22" viewBox="0 0 24 22" fill="none" xmlns="http://www.w3.org/2000/svg">
<path d="M11.4247 17.9296C11.5823 17.836 11.7785 17.8362 11.9359 17.93L17.5522 21.2767L17.5524 21.2767C18.2173 21.6733 18.9911 21.0801 18.8261 20.3811L17.3375 14.088C17.2943 13.9055 17.3569 13.7143 17.4994 13.5926L22.4662 9.35258L22.4663 9.35243C23.0262 8.87495 22.7371 7.95731 21.9803 7.898L21.9777 7.89779L15.4411 7.35112C15.2571 7.33572 15.0965 7.2201 15.0235 7.05042L12.4657 1.10375L12.465 1.10217C12.1776 0.427532 11.1823 0.427532 10.8949 1.10217L10.894 1.10413L8.33622 7.03746C8.26315 7.20695 8.10266 7.3224 7.91874 7.33779L1.38214 7.88445L1.37953 7.88467L1.37953 7.88466C0.622729 7.94397 0.333677 8.86161 0.893526 9.3391L0.893703 9.33925L5.86044 13.5792C6.00301 13.701 6.06552 13.8922 6.02237 14.0746L4.53376 20.3677L11.4247 17.9296ZM11.4247 17.9296L5.80841 21.2629L5.80752 21.2634M11.4247 17.9296L5.80752 21.2634M5.80752 21.2634C5.1426 21.6599 4.36892 21.0669 4.53371 20.368L5.80752 21.2634Z" fill="#FFBA79" stroke="#FFBA79" stroke-linejoin="round"/>
</svg>
