<svg width="296" height="137" viewBox="0 0 296 137" fill="none" xmlns="http://www.w3.org/2000/svg">
<rect width="295.066" height="136.676" rx="6.38672" fill="#F5F5F7"/>
<path d="M234.332 23.7734V18.7535H232.784V18.0637H236.616V18.7535H235.09V23.7734H234.332ZM237.102 23.7734V17.9717H237.815V20.4472L237.684 20.3783C237.787 20.1177 237.95 19.9159 238.175 19.7728C238.405 19.6246 238.673 19.5505 238.98 19.5505C239.276 19.5505 239.539 19.617 239.769 19.7498C240.004 19.8826 240.188 20.0666 240.321 20.3016C240.459 20.5366 240.528 20.8023 240.528 21.0987V23.7734H239.807V21.3286C239.807 21.0987 239.764 20.9045 239.677 20.7461C239.595 20.5877 239.48 20.4651 239.332 20.3783C239.184 20.2863 239.013 20.2403 238.819 20.2403C238.63 20.2403 238.458 20.2863 238.305 20.3783C238.152 20.4651 238.032 20.5903 237.945 20.7538C237.858 20.9122 237.815 21.1038 237.815 21.3286V23.7734H237.102ZM241.394 23.7734V19.6425H242.107V23.7734H241.394ZM241.394 18.9834V18.0637H242.107V18.9834H241.394ZM244.539 23.8654C244.125 23.8654 243.765 23.7632 243.458 23.5588C243.152 23.3545 242.935 23.0786 242.807 22.7311L243.374 22.4552C243.492 22.7005 243.653 22.8946 243.857 23.0377C244.061 23.1807 244.289 23.2523 244.539 23.2523C244.764 23.2523 244.95 23.1986 245.099 23.0913C245.247 22.984 245.321 22.8435 245.321 22.6698C245.321 22.5472 245.285 22.4501 245.213 22.3786C245.147 22.3019 245.065 22.2432 244.968 22.2023C244.871 22.1563 244.782 22.1231 244.7 22.1027L244.079 21.9264C243.706 21.8191 243.433 21.6658 243.259 21.4666C243.091 21.2673 243.006 21.0348 243.006 20.7691C243.006 20.5239 243.068 20.3118 243.19 20.133C243.318 19.9491 243.489 19.806 243.704 19.7038C243.923 19.6016 244.169 19.5505 244.439 19.5505C244.802 19.5505 245.127 19.6425 245.413 19.8264C245.704 20.0104 245.911 20.2684 246.034 20.6005L245.451 20.8688C245.359 20.6542 245.221 20.4856 245.037 20.3629C244.853 20.2352 244.646 20.1713 244.416 20.1713C244.207 20.1713 244.041 20.225 243.918 20.3323C243.796 20.4345 243.734 20.5647 243.734 20.7231C243.734 20.8407 243.765 20.9377 243.826 21.0144C243.888 21.0859 243.962 21.1421 244.049 21.183C244.135 21.2187 244.22 21.2494 244.301 21.275L244.976 21.4742C245.313 21.5713 245.574 21.722 245.758 21.9264C245.947 22.1308 246.041 22.376 246.041 22.6621C246.041 22.8921 245.977 23.099 245.85 23.2829C245.722 23.4669 245.546 23.6099 245.321 23.7121C245.096 23.8143 244.835 23.8654 244.539 23.8654ZM249.127 23.7734L247.525 18.0637H248.314L249.656 23.0913H249.472L250.866 18.0637H251.656L253.043 23.0913H252.851L254.2 18.0637H254.99L253.388 23.7734H252.553L251.158 18.7688H251.357L249.962 23.7734H249.127ZM257.09 23.8654C256.691 23.8654 256.336 23.7709 256.024 23.5818C255.713 23.3928 255.467 23.1348 255.288 22.8078C255.11 22.4757 255.02 22.1052 255.02 21.6965C255.02 21.2826 255.107 20.9147 255.281 20.5929C255.46 20.271 255.7 20.018 256.001 19.8341C256.308 19.6451 256.65 19.5505 257.028 19.5505C257.335 19.5505 257.606 19.6067 257.841 19.7191C258.081 19.8264 258.283 19.9746 258.446 20.1637C258.615 20.3476 258.742 20.5596 258.829 20.7998C258.921 21.0348 258.967 21.2801 258.967 21.5355C258.967 21.5917 258.962 21.6556 258.952 21.7271C258.947 21.7936 258.939 21.8574 258.929 21.9187H255.541V21.3056H258.515L258.178 21.5815C258.224 21.3158 258.198 21.0782 258.101 20.8688C258.004 20.6593 257.861 20.4932 257.672 20.3706C257.483 20.248 257.268 20.1867 257.028 20.1867C256.788 20.1867 256.568 20.248 256.369 20.3706C256.17 20.4932 256.014 20.6695 255.902 20.8994C255.794 21.1242 255.751 21.3925 255.771 21.7041C255.751 22.0056 255.797 22.2713 255.909 22.5012C256.027 22.726 256.19 22.9023 256.4 23.03C256.614 23.1526 256.847 23.214 257.097 23.214C257.373 23.214 257.606 23.1501 257.795 23.0224C257.984 22.8946 258.137 22.7311 258.254 22.5319L258.852 22.8384C258.771 23.0275 258.643 23.2012 258.469 23.3596C258.3 23.5129 258.099 23.6355 257.864 23.7275C257.634 23.8194 257.376 23.8654 257.09 23.8654ZM261.644 23.8654C261.245 23.8654 260.89 23.7709 260.579 23.5818C260.267 23.3928 260.022 23.1348 259.843 22.8078C259.664 22.4757 259.575 22.1052 259.575 21.6965C259.575 21.2826 259.662 20.9147 259.835 20.5929C260.014 20.271 260.254 20.018 260.556 19.8341C260.862 19.6451 261.205 19.5505 261.583 19.5505C261.889 19.5505 262.16 19.6067 262.395 19.7191C262.635 19.8264 262.837 19.9746 263 20.1637C263.169 20.3476 263.297 20.5596 263.384 20.7998C263.476 21.0348 263.522 21.2801 263.522 21.5355C263.522 21.5917 263.517 21.6556 263.506 21.7271C263.501 21.7936 263.494 21.8574 263.483 21.9187H260.096V21.3056H263.069L262.732 21.5815C262.778 21.3158 262.753 21.0782 262.656 20.8688C262.559 20.6593 262.415 20.4932 262.226 20.3706C262.037 20.248 261.823 20.1867 261.583 20.1867C261.343 20.1867 261.123 20.248 260.924 20.3706C260.724 20.4932 260.568 20.6695 260.456 20.8994C260.349 21.1242 260.305 21.3925 260.326 21.7041C260.305 22.0056 260.351 22.2713 260.464 22.5012C260.581 22.726 260.745 22.9023 260.954 23.03C261.169 23.1526 261.401 23.214 261.652 23.214C261.928 23.214 262.16 23.1501 262.349 23.0224C262.538 22.8946 262.691 22.7311 262.809 22.5319L263.407 22.8384C263.325 23.0275 263.197 23.2012 263.023 23.3596C262.855 23.5129 262.653 23.6355 262.418 23.7275C262.188 23.8194 261.93 23.8654 261.644 23.8654ZM264.298 23.7734V17.9717H265.01V21.9494L264.719 21.8804L266.911 19.6425H267.823L266.237 21.3056L267.93 23.7734H267.087L265.539 21.5355L265.984 21.5125L264.781 22.7694L265.01 22.2483V23.7734H264.298Z" fill="#232340"/>
<path d="M280.99 19.4635L278.908 21.5456C278.662 21.7915 278.26 21.7915 278.014 21.5456L275.932 19.4635" stroke="#54577A" stroke-width="0.958008" stroke-miterlimit="10" stroke-linecap="round" stroke-linejoin="round"/>
<path d="M12.8858 24.7734L15.5632 17.1605H17.0551L19.7324 24.7734H18.4448L17.8624 23.0669H14.7661L14.1734 24.7734H12.8858ZM15.1135 21.9939H17.4945L16.1456 18.0086H16.4828L15.1135 21.9939ZM22.7454 24.8961C22.1936 24.8961 21.7031 24.77 21.2739 24.518C20.8515 24.2591 20.5143 23.9117 20.2623 23.4757C20.017 23.0397 19.8944 22.5457 19.8944 21.9939C19.8944 21.4489 20.017 20.9584 20.2623 20.5224C20.5075 20.0864 20.8447 19.7458 21.2739 19.5006C21.7031 19.2485 22.1936 19.1225 22.7454 19.1225C23.1201 19.1225 23.471 19.1906 23.798 19.3268C24.125 19.4563 24.4077 19.6368 24.6461 19.8684C24.8914 20.1001 25.0719 20.3692 25.1877 20.6757L24.176 21.1458C24.0602 20.8597 23.8729 20.6314 23.614 20.4611C23.362 20.284 23.0724 20.1954 22.7454 20.1954C22.432 20.1954 22.1493 20.2738 21.8973 20.4305C21.652 20.5803 21.4579 20.7949 21.3148 21.0742C21.1717 21.3467 21.1002 21.6567 21.1002 22.0042C21.1002 22.3516 21.1717 22.665 21.3148 22.9443C21.4579 23.2168 21.652 23.4314 21.8973 23.5881C22.1493 23.7447 22.432 23.8231 22.7454 23.8231C23.0792 23.8231 23.3688 23.7379 23.614 23.5676C23.8661 23.3905 24.0534 23.1555 24.176 22.8625L25.1877 23.3428C25.0787 23.6357 24.9016 23.9014 24.6563 24.1399C24.4179 24.3715 24.1352 24.5554 23.8082 24.6917C23.4812 24.8279 23.1269 24.8961 22.7454 24.8961ZM28.5031 24.8348C27.9241 24.8348 27.4744 24.6712 27.1543 24.3442C26.8341 24.0172 26.674 23.5574 26.674 22.9647V20.2874H25.7032V19.2451H25.8565C26.1153 19.2451 26.3163 19.1702 26.4594 19.0203C26.6024 18.8704 26.674 18.666 26.674 18.4072V17.978H27.8287V19.2451H29.0856V20.2874H27.8287V22.9136C27.8287 23.1044 27.8593 23.2679 27.9207 23.4041C27.982 23.5336 28.0808 23.6357 28.217 23.7107C28.3533 23.7788 28.5304 23.8129 28.7484 23.8129C28.8029 23.8129 28.8642 23.8095 28.9323 23.8027C29.0004 23.7958 29.0652 23.789 29.1265 23.7822V24.7734C29.0311 24.7871 28.9255 24.8007 28.8097 24.8143C28.6939 24.8279 28.5917 24.8348 28.5031 24.8348ZM30.049 24.7734V19.2451H31.2037V24.7734H30.049ZM30.049 18.4889V17.1605H31.2037V18.4889H30.049ZM33.9537 24.7734L31.7873 19.2451H33.0442L34.7099 23.7516H34.2501L35.9157 19.2451H37.1828L35.0062 24.7734H33.9537ZM37.7633 24.7734V19.2451H38.918V24.7734H37.7633ZM37.7633 18.4889V17.1605H38.918V18.4889H37.7633ZM42.4549 24.8348C41.8759 24.8348 41.4262 24.6712 41.106 24.3442C40.7859 24.0172 40.6258 23.5574 40.6258 22.9647V20.2874H39.655V19.2451H39.8083C40.0671 19.2451 40.2681 19.1702 40.4112 19.0203C40.5542 18.8704 40.6258 18.666 40.6258 18.4072V17.978H41.7805V19.2451H43.0374V20.2874H41.7805V22.9136C41.7805 23.1044 41.8111 23.2679 41.8724 23.4041C41.9338 23.5336 42.0325 23.6357 42.1688 23.7107C42.305 23.7788 42.4822 23.8129 42.7002 23.8129C42.7547 23.8129 42.816 23.8095 42.8841 23.8027C42.9522 23.7958 43.0169 23.789 43.0783 23.7822V24.7734C42.9829 24.7871 42.8773 24.8007 42.7615 24.8143C42.6457 24.8279 42.5435 24.8348 42.4549 24.8348ZM44.4912 27.0318C44.355 27.0318 44.2187 27.0182 44.0825 26.9909C43.9531 26.9705 43.8338 26.9364 43.7248 26.8887V25.8975C43.8066 25.9179 43.9054 25.935 44.0212 25.9486C44.137 25.969 44.2494 25.9793 44.3584 25.9793C44.6786 25.9793 44.9136 25.9077 45.0635 25.7647C45.2202 25.6284 45.3598 25.4138 45.4825 25.1209L45.8503 24.2829L45.8299 25.2537L43.4387 19.2451H44.6752L46.443 23.8537H46.0241L47.7817 19.2451H49.0284L46.5861 25.3763C46.4566 25.7033 46.2931 25.9895 46.0956 26.2347C45.9048 26.4868 45.6766 26.6809 45.4109 26.8172C45.1521 26.9603 44.8455 27.0318 44.4912 27.0318Z" fill="#232340"/>
<rect x="12.7734" y="40.875" width="269.52" height="83.0273" rx="6.38672" fill="white"/>
<path d="M25.4612 59.1857C25.1598 59.1857 24.8788 59.1321 24.6182 59.0248C24.3576 58.9175 24.1328 58.7667 23.9437 58.5726C23.7547 58.3733 23.6142 58.1383 23.5222 57.8675L24.1583 57.6069C24.2656 57.893 24.4342 58.1153 24.6642 58.2737C24.8941 58.4321 25.1598 58.5113 25.4612 58.5113C25.6963 58.5113 25.9057 58.4653 26.0897 58.3733C26.2736 58.2814 26.4167 58.1485 26.5189 57.9748C26.6262 57.8011 26.6798 57.5916 26.6798 57.3463C26.6798 57.096 26.6262 56.8865 26.5189 56.7179C26.4167 56.5442 26.2736 56.4113 26.0897 56.3194C25.9057 56.2274 25.6937 56.1814 25.4536 56.1814C25.3769 56.1814 25.2926 56.1865 25.2006 56.1967C25.1138 56.207 25.0397 56.2223 24.9784 56.2427L24.8174 55.8978L26.3426 54.0355H23.8134V53.384H27.1933V54.0125L25.7371 55.8059L25.6911 55.6066C26.0335 55.6168 26.3349 55.696 26.5955 55.8442C26.8561 55.9924 27.0605 56.1942 27.2086 56.4496C27.3568 56.7 27.4309 56.9938 27.4309 57.331C27.4309 57.6785 27.3466 57.9927 27.178 58.2737C27.0094 58.5547 26.7769 58.777 26.4805 58.9405C26.1842 59.104 25.8444 59.1857 25.4612 59.1857Z" fill="#232340"/>
<path d="M23.6668 80.8086V80.2874L25.2456 78.5784C25.5572 78.2462 25.805 77.9729 25.989 77.7583C26.178 77.5437 26.316 77.3521 26.4028 77.1835C26.4897 77.0149 26.5331 76.8361 26.5331 76.647C26.5331 76.3353 26.4411 76.0952 26.2572 75.9266C26.0733 75.758 25.8306 75.6737 25.5291 75.6737C25.2226 75.6737 24.962 75.7631 24.7474 75.9419C24.5328 76.1156 24.3846 76.3634 24.3029 76.6853L23.6208 76.5091C23.6872 76.2025 23.8098 75.9368 23.9886 75.712C24.1675 75.4872 24.3897 75.3135 24.6554 75.1908C24.9211 75.0682 25.2123 75.0069 25.5291 75.0069C25.8766 75.0069 26.1806 75.0759 26.4411 75.2138C26.7068 75.3467 26.9138 75.5332 27.0619 75.7733C27.2152 76.0134 27.2919 76.2919 27.2919 76.6087C27.2919 76.8182 27.2484 77.0225 27.1616 77.2218C27.0747 77.4211 26.947 77.6331 26.7784 77.8579C26.6098 78.0776 26.3901 78.3331 26.1193 78.6243L24.7091 80.1571H27.4145V80.8086H23.6668Z" fill="#232340"/>
<path d="M25.4479 102.523V97.4652H24.3672V96.8137H26.2066V102.523H25.4479Z" fill="#232340"/>
<line x1="41.1396" y1="51.0938" x2="41.1396" y2="102.188" stroke="#F5F5F7" stroke-width="0.638672"/>
<path d="M40.9184 115.389C40.5557 115.389 40.2236 115.322 39.9221 115.19C39.6206 115.052 39.3652 114.865 39.1557 114.63C38.9462 114.395 38.7955 114.132 38.7035 113.841L39.355 113.572C39.4929 113.94 39.6973 114.224 39.9681 114.423C40.244 114.617 40.5659 114.714 40.9338 114.714C41.1586 114.714 41.3553 114.679 41.5239 114.607C41.6925 114.536 41.8228 114.436 41.9148 114.308C42.0118 114.175 42.0604 114.022 42.0604 113.848C42.0604 113.608 41.9914 113.419 41.8534 113.281C41.7206 113.138 41.5239 113.031 41.2633 112.959L40.2133 112.637C39.7995 112.51 39.4827 112.308 39.263 112.032C39.0433 111.756 38.9334 111.439 38.9334 111.082C38.9334 110.77 39.0075 110.497 39.1557 110.262C39.309 110.021 39.5185 109.835 39.7841 109.702C40.0549 109.564 40.3615 109.495 40.7038 109.495C41.0462 109.495 41.3553 109.556 41.6312 109.679C41.9122 109.802 42.1498 109.968 42.3439 110.177C42.5381 110.382 42.6812 110.617 42.7731 110.882L42.1294 111.151C42.0067 110.829 41.8228 110.586 41.5775 110.423C41.3323 110.254 41.0436 110.17 40.7115 110.17C40.5071 110.17 40.3257 110.205 40.1674 110.277C40.0141 110.343 39.894 110.443 39.8071 110.576C39.7254 110.704 39.6845 110.857 39.6845 111.036C39.6845 111.245 39.7509 111.432 39.8838 111.595C40.0166 111.759 40.2184 111.884 40.4892 111.971L41.4473 112.254C41.8969 112.392 42.2366 112.589 42.4666 112.844C42.6965 113.1 42.8115 113.417 42.8115 113.795C42.8115 114.106 42.7297 114.382 42.5662 114.622C42.4078 114.863 42.1856 115.052 41.8994 115.19C41.6184 115.322 41.2914 115.389 40.9184 115.389Z" fill="#232340"/>
<line x1="79.7119" y1="51.0938" x2="79.7119" y2="102.188" stroke="#F5F5F7" stroke-width="0.638672"/>
<path d="M76.5287 115.297V109.587H77.2185L79.3567 112.63H79.0042L81.1271 109.587H81.8169V115.297H81.0582V110.537L81.3264 110.622L79.2035 113.611H79.1421L77.0422 110.622L77.2798 110.537V115.297H76.5287Z" fill="#232340"/>
<line x1="118.284" y1="51.0938" x2="118.284" y2="102.188" stroke="#F5F5F7" stroke-width="0.638672"/>
<path d="M117.097 115.297V110.277H115.549V109.587H119.381V110.277H117.856V115.297H117.097Z" fill="#232340"/>
<line x1="157.356" y1="51.0938" x2="157.356" y2="102.188" stroke="#F5F5F7" stroke-width="0.638672"/>
<path d="M154.723 115.297L153.121 109.587H153.911L155.252 114.615H155.068L156.463 109.587H157.252L158.64 114.615H158.448L159.797 109.587H160.586L158.984 115.297H158.149L156.754 110.292H156.953L155.559 115.297H154.723Z" fill="#232340"/>
<line x1="196.429" y1="51.0938" x2="196.429" y2="102.188" stroke="#F5F5F7" stroke-width="0.638672"/>
<path d="M195.242 115.297V110.277H193.694V109.587H197.526V110.277H196.001V115.297H195.242Z" fill="#232340"/>
<line x1="234.001" y1="51.0938" x2="234.001" y2="102.188" stroke="#F5F5F7" stroke-width="0.638672"/>
<path d="M231.818 115.297V109.587H235.435V110.277H232.569V112.124H235.167V112.814H232.569V115.297H231.818Z" fill="#232340"/>
<line x1="271.573" y1="51.0938" x2="271.573" y2="102.188" stroke="#F5F5F7" stroke-width="0.638672"/>
<path d="M271.352 115.389C270.989 115.389 270.657 115.322 270.356 115.19C270.054 115.052 269.799 114.865 269.589 114.63C269.38 114.395 269.229 114.132 269.137 113.841L269.789 113.572C269.927 113.94 270.131 114.224 270.402 114.423C270.678 114.617 270.999 114.714 271.367 114.714C271.592 114.714 271.789 114.679 271.957 114.607C272.126 114.536 272.256 114.436 272.348 114.308C272.445 114.175 272.494 114.022 272.494 113.848C272.494 113.608 272.425 113.419 272.287 113.281C272.154 113.138 271.957 113.031 271.697 112.959L270.647 112.637C270.233 112.51 269.916 112.308 269.697 112.032C269.477 111.756 269.367 111.439 269.367 111.082C269.367 110.77 269.441 110.497 269.589 110.262C269.743 110.021 269.952 109.835 270.218 109.702C270.489 109.564 270.795 109.495 271.137 109.495C271.48 109.495 271.789 109.556 272.065 109.679C272.346 109.802 272.583 109.968 272.778 110.177C272.972 110.382 273.115 110.617 273.207 110.882L272.563 111.151C272.44 110.829 272.256 110.586 272.011 110.423C271.766 110.254 271.477 110.17 271.145 110.17C270.941 110.17 270.759 110.205 270.601 110.277C270.448 110.343 270.328 110.443 270.241 110.576C270.159 110.704 270.118 110.857 270.118 111.036C270.118 111.245 270.185 111.432 270.317 111.595C270.45 111.759 270.652 111.884 270.923 111.971L271.881 112.254C272.33 112.392 272.67 112.589 272.9 112.844C273.13 113.1 273.245 113.417 273.245 113.795C273.245 114.106 273.163 114.382 273 114.622C272.841 114.863 272.619 115.052 272.333 115.19C272.052 115.322 271.725 115.389 271.352 115.389Z" fill="#232340"/>
<path d="M40.875 107.936L69.3314 92.7287C74.8102 89.8009 81.3685 89.7109 86.9255 92.4874L106.595 102.315C113.425 105.727 121.629 104.759 127.477 99.8511L145.866 84.417C152.283 79.0305 161.457 78.4387 168.513 82.9561L186.192 94.2732C191.931 97.9473 199.19 98.2964 205.256 95.1901L227.171 83.967C230.735 82.1417 234.782 81.479 238.742 82.072L269.52 86.6808" stroke="#7676B2" stroke-opacity="0.2" stroke-width="1.91602" stroke-linecap="round"/>
<path d="M40.875 102.527L68.3858 84.9157C75.2731 80.5067 84.1996 80.9548 90.6106 86.0315L103.275 96.0598C111.562 102.622 123.597 101.233 130.172 92.957L143.57 76.0923C150.47 67.4061 163.283 66.3775 171.481 73.8516L185.482 86.6168C191.25 91.8753 199.631 93.1095 206.67 89.7369L226.92 80.0342C230.306 78.4119 234.094 77.8201 237.813 78.3322L269.52 82.6977" stroke="#232340" stroke-width="1.91602" stroke-linecap="round"/>
</svg>
