<svg width="121" height="175" viewBox="0 0 121 175" fill="none" xmlns="http://www.w3.org/2000/svg">
<g clip-path="url(#clip0_20333_5114)">
<rect y="16.6055" width="120.07" height="158.391" rx="6.38672" fill="#232340"/>
<rect y="16.6055" width="120.07" height="158.391" rx="6.38672" fill="#141522" fill-opacity="0.04"/>
<circle cx="-8.94141" cy="3.83203" r="51.0938" fill="white" fill-opacity="0.08"/>
<circle cx="127.734" cy="174.996" r="51.0938" fill="white" fill-opacity="0.08"/>
<rect x="10.2188" y="139.23" width="99.6328" height="25.5469" rx="6.38672" fill="white"/>
<path d="M31.1607 154.987C30.757 154.987 30.3815 154.912 30.0341 154.764C29.6917 154.616 29.3903 154.412 29.1297 154.151C28.8742 153.885 28.675 153.574 28.5319 153.216C28.3888 152.858 28.3173 152.465 28.3173 152.036C28.3173 151.612 28.3863 151.221 28.5242 150.863C28.6673 150.5 28.8666 150.189 29.122 149.928C29.3775 149.663 29.6764 149.458 30.0187 149.315C30.3611 149.167 30.7366 149.093 31.1454 149.093C31.549 149.093 31.9092 149.162 32.226 149.3C32.5479 149.438 32.8187 149.619 33.0384 149.844C33.2581 150.064 33.4165 150.304 33.5135 150.564L32.7088 150.955C32.5913 150.644 32.3971 150.393 32.1264 150.204C31.8556 150.01 31.5286 149.913 31.1454 149.913C30.7673 149.913 30.4326 150.002 30.1414 150.181C29.8501 150.36 29.6228 150.608 29.4593 150.925C29.3009 151.241 29.2217 151.612 29.2217 152.036C29.2217 152.46 29.3034 152.833 29.4669 153.155C29.6355 153.472 29.8655 153.719 30.1567 153.898C30.4479 154.072 30.7826 154.159 31.1607 154.159C31.4775 154.159 31.7661 154.095 32.0267 153.967C32.2924 153.834 32.5044 153.65 32.6628 153.415C32.8212 153.175 32.9004 152.897 32.9004 152.58V152.189L33.3066 152.557H31.1454V151.791H33.7971V152.327C33.7971 152.746 33.7256 153.122 33.5825 153.454C33.4395 153.781 33.2453 154.059 33.0001 154.289C32.7548 154.519 32.4738 154.693 32.157 154.81C31.8402 154.928 31.5081 154.987 31.1607 154.987ZM36.4832 154.987C36.0847 154.987 35.7193 154.892 35.3872 154.703C35.0602 154.514 34.7997 154.256 34.6055 153.929C34.4113 153.602 34.3143 153.231 34.3143 152.818C34.3143 152.399 34.4113 152.028 34.6055 151.706C34.7997 151.379 35.0602 151.124 35.3872 150.94C35.7142 150.751 36.0796 150.656 36.4832 150.656C36.8919 150.656 37.2573 150.751 37.5792 150.94C37.9062 151.124 38.1642 151.379 38.3532 151.706C38.5474 152.028 38.6445 152.399 38.6445 152.818C38.6445 153.237 38.5474 153.61 38.3532 153.937C38.1591 154.264 37.8985 154.522 37.5715 154.711C37.2445 154.895 36.8817 154.987 36.4832 154.987ZM36.4832 154.182C36.7284 154.182 36.9456 154.123 37.1346 154.005C37.3237 153.888 37.4719 153.727 37.5792 153.523C37.6916 153.313 37.7478 153.078 37.7478 152.818C37.7478 152.557 37.6916 152.325 37.5792 152.12C37.4719 151.916 37.3237 151.755 37.1346 151.637C36.9456 151.52 36.7284 151.461 36.4832 151.461C36.2431 151.461 36.0259 151.52 35.8317 151.637C35.6427 151.755 35.492 151.916 35.3796 152.12C35.2723 152.325 35.2186 152.557 35.2186 152.818C35.2186 153.078 35.2723 153.313 35.3796 153.523C35.492 153.727 35.6427 153.888 35.8317 154.005C36.0259 154.123 36.2431 154.182 36.4832 154.182ZM41.6191 154.895V149.99H40.1016V149.185H44.0103V149.99H42.5158V154.895H41.6191ZM45.9103 154.987C45.5118 154.987 45.1464 154.892 44.8143 154.703C44.4873 154.514 44.2267 154.256 44.0326 153.929C43.8384 153.602 43.7414 153.231 43.7414 152.818C43.7414 152.399 43.8384 152.028 44.0326 151.706C44.2267 151.379 44.4873 151.124 44.8143 150.94C45.1413 150.751 45.5066 150.656 45.9103 150.656C46.319 150.656 46.6844 150.751 47.0063 150.94C47.3333 151.124 47.5913 151.379 47.7803 151.706C47.9745 152.028 48.0716 152.399 48.0716 152.818C48.0716 153.237 47.9745 153.61 47.7803 153.937C47.5862 154.264 47.3256 154.522 46.9986 154.711C46.6716 154.895 46.3088 154.987 45.9103 154.987ZM45.9103 154.182C46.1555 154.182 46.3727 154.123 46.5617 154.005C46.7508 153.888 46.899 153.727 47.0063 153.523C47.1187 153.313 47.1749 153.078 47.1749 152.818C47.1749 152.557 47.1187 152.325 47.0063 152.12C46.899 151.916 46.7508 151.755 46.5617 151.637C46.3727 151.52 46.1555 151.461 45.9103 151.461C45.6701 151.461 45.453 151.52 45.2588 151.637C45.0698 151.755 44.9191 151.916 44.8067 152.12C44.6994 152.325 44.6457 152.557 44.6457 152.818C44.6457 153.078 44.6994 153.313 44.8067 153.523C44.9191 153.727 45.0698 153.888 45.2588 154.005C45.453 154.123 45.6701 154.182 45.9103 154.182ZM50.0345 154.895V149.185H50.9389V151.699H53.583V149.185H54.4797V154.895H53.583V152.503H50.9389V154.895H50.0345ZM57.3719 154.987C56.958 154.987 56.5902 154.892 56.2683 154.703C55.9515 154.509 55.7037 154.248 55.5249 153.921C55.346 153.589 55.2566 153.219 55.2566 152.81C55.2566 152.391 55.346 152.021 55.5249 151.699C55.7088 151.377 55.954 151.124 56.2606 150.94C56.5672 150.751 56.9146 150.656 57.3029 150.656C57.6146 150.656 57.893 150.71 58.1383 150.817C58.3835 150.925 58.5905 151.073 58.7591 151.262C58.9277 151.446 59.0554 151.658 59.1423 151.898C59.2343 152.138 59.2802 152.393 59.2802 152.664C59.2802 152.731 59.2777 152.8 59.2726 152.871C59.2675 152.943 59.2573 153.009 59.2419 153.07H55.9387V152.381H58.7514L58.3376 152.695C58.3887 152.445 58.3708 152.222 58.2839 152.028C58.2022 151.829 58.0744 151.673 57.9007 151.561C57.7321 151.443 57.5328 151.384 57.3029 151.384C57.073 151.384 56.8686 151.443 56.6898 151.561C56.511 151.673 56.373 151.837 56.2759 152.051C56.1789 152.261 56.1405 152.516 56.161 152.818C56.1354 153.099 56.1737 153.344 56.2759 153.553C56.3832 153.763 56.5314 153.926 56.7204 154.044C56.9146 154.161 57.1343 154.22 57.3796 154.22C57.6299 154.22 57.842 154.164 58.0157 154.051C58.1945 153.939 58.335 153.793 58.4372 153.615L59.1423 153.96C59.0605 154.154 58.9328 154.33 58.7591 154.488C58.5905 154.642 58.3861 154.764 58.146 154.856C57.9109 154.943 57.6529 154.987 57.3719 154.987ZM59.9722 154.895V149.093H60.8382V154.895H59.9722ZM61.6975 156.427V150.748H62.5252V151.607L62.4256 151.407C62.5788 151.172 62.7832 150.988 63.0387 150.856C63.2942 150.723 63.5854 150.656 63.9124 150.656C64.3058 150.656 64.6584 150.751 64.97 150.94C65.2868 151.129 65.5346 151.387 65.7134 151.714C65.8974 152.041 65.9894 152.409 65.9894 152.818C65.9894 153.226 65.8974 153.594 65.7134 153.921C65.5346 154.248 65.2894 154.509 64.9777 154.703C64.666 154.892 64.3109 154.987 63.9124 154.987C63.5905 154.987 63.2967 154.92 63.031 154.787C62.7704 154.654 62.5686 154.463 62.4256 154.212L62.5635 154.051V156.427H61.6975ZM63.8281 154.182C64.0733 154.182 64.2905 154.123 64.4795 154.005C64.6686 153.888 64.8168 153.727 64.924 153.523C65.0365 153.313 65.0927 153.078 65.0927 152.818C65.0927 152.557 65.0365 152.325 64.924 152.12C64.8168 151.916 64.6686 151.755 64.4795 151.637C64.2905 151.52 64.0733 151.461 63.8281 151.461C63.5879 151.461 63.3708 151.52 63.1766 151.637C62.9876 151.755 62.8369 151.916 62.7245 152.12C62.6172 152.325 62.5635 152.557 62.5635 152.818C62.5635 153.078 62.6172 153.313 62.7245 153.523C62.8369 153.727 62.9876 153.888 63.1766 154.005C63.3708 154.123 63.5879 154.182 63.8281 154.182ZM70.6087 154.987C70.205 154.987 69.8295 154.912 69.4821 154.764C69.1397 154.616 68.8408 154.412 68.5854 154.151C68.335 153.885 68.1383 153.574 67.9952 153.216C67.8522 152.858 67.7807 152.465 67.7807 152.036C67.7807 151.612 67.8496 151.221 67.9876 150.863C68.1306 150.5 68.3299 150.189 68.5854 149.928C68.8408 149.663 69.1397 149.458 69.4821 149.315C69.8244 149.167 70.1999 149.093 70.6087 149.093C71.0123 149.093 71.3725 149.162 71.6893 149.3C72.0112 149.438 72.282 149.619 72.5017 149.844C72.7214 150.064 72.8798 150.304 72.9769 150.564L72.1645 150.948C72.0419 150.641 71.8452 150.393 71.5744 150.204C71.3087 150.01 70.9868 149.913 70.6087 149.913C70.2306 149.913 69.8959 150.002 69.6047 150.181C69.3135 150.36 69.0861 150.608 68.9226 150.925C68.7642 151.241 68.685 151.612 68.685 152.036C68.685 152.46 68.7642 152.833 68.9226 153.155C69.0861 153.472 69.3135 153.719 69.6047 153.898C69.8959 154.072 70.2306 154.159 70.6087 154.159C70.9868 154.159 71.3087 154.064 71.5744 153.875C71.8452 153.686 72.0419 153.438 72.1645 153.132L72.9769 153.515C72.8798 153.77 72.7214 154.011 72.5017 154.235C72.282 154.46 72.0112 154.642 71.6893 154.78C71.3725 154.918 71.0123 154.987 70.6087 154.987ZM75.5411 154.987C75.1273 154.987 74.7594 154.892 74.4375 154.703C74.1207 154.509 73.8729 154.248 73.6941 153.921C73.5152 153.589 73.4258 153.219 73.4258 152.81C73.4258 152.391 73.5152 152.021 73.6941 151.699C73.878 151.377 74.1233 151.124 74.4298 150.94C74.7364 150.751 75.0838 150.656 75.4721 150.656C75.7838 150.656 76.0623 150.71 76.3075 150.817C76.5528 150.925 76.7597 151.073 76.9283 151.262C77.0969 151.446 77.2247 151.658 77.3115 151.898C77.4035 152.138 77.4495 152.393 77.4495 152.664C77.4495 152.731 77.4469 152.8 77.4418 152.871C77.4367 152.943 77.4265 153.009 77.4111 153.07H74.1079V152.381H76.9206L76.5068 152.695C76.5579 152.445 76.54 152.222 76.4531 152.028C76.3714 151.829 76.2437 151.673 76.0699 151.561C75.9013 151.443 75.7021 151.384 75.4721 151.384C75.2422 151.384 75.0378 151.443 74.859 151.561C74.6802 151.673 74.5422 151.837 74.4452 152.051C74.3481 152.261 74.3098 152.516 74.3302 152.818C74.3046 153.099 74.343 153.344 74.4452 153.553C74.5524 153.763 74.7006 153.926 74.8897 154.044C75.0838 154.161 75.3035 154.22 75.5488 154.22C75.7991 154.22 76.0112 154.164 76.1849 154.051C76.3637 153.939 76.5042 153.793 76.6064 153.615L77.3115 153.96C77.2298 154.154 77.102 154.33 76.9283 154.488C76.7597 154.642 76.5553 154.764 76.3152 154.856C76.0802 154.943 75.8221 154.987 75.5411 154.987ZM78.1414 154.895V150.748H78.9691V151.561L78.8695 151.453C78.9717 151.193 79.1352 150.996 79.36 150.863C79.5848 150.725 79.8454 150.656 80.1417 150.656C80.4483 150.656 80.7191 150.723 80.9541 150.856C81.1891 150.988 81.3731 151.172 81.5059 151.407C81.6388 151.642 81.7052 151.913 81.7052 152.22V154.895H80.8468V152.45C80.8468 152.24 80.8085 152.064 80.7318 151.921C80.6552 151.773 80.5453 151.66 80.4023 151.584C80.2643 151.502 80.1059 151.461 79.9271 151.461C79.7483 151.461 79.5873 151.502 79.4443 151.584C79.3063 151.66 79.199 151.773 79.1224 151.921C79.0457 152.069 79.0074 152.245 79.0074 152.45V154.895H78.1414ZM84.2722 154.941C83.8379 154.941 83.5006 154.818 83.2605 154.573C83.0204 154.327 82.9003 153.983 82.9003 153.538V151.53H82.1722V150.748H82.2872C82.4813 150.748 82.632 150.692 82.7393 150.58C82.8466 150.467 82.9003 150.314 82.9003 150.12V149.798H83.7663V150.748H84.709V151.53H83.7663V153.5C83.7663 153.643 83.7893 153.765 83.8353 153.868C83.8813 153.965 83.9554 154.041 84.0576 154.097C84.1597 154.149 84.2926 154.174 84.4561 154.174C84.497 154.174 84.543 154.172 84.594 154.166C84.6451 154.161 84.6937 154.156 84.7397 154.151V154.895C84.6681 154.905 84.5889 154.915 84.5021 154.925C84.4152 154.935 84.3386 154.941 84.2722 154.941ZM87.3034 154.987C86.8895 154.987 86.5216 154.892 86.1997 154.703C85.8829 154.509 85.6351 154.248 85.4563 153.921C85.2775 153.589 85.1881 153.219 85.1881 152.81C85.1881 152.391 85.2775 152.021 85.4563 151.699C85.6403 151.377 85.8855 151.124 86.1921 150.94C86.4986 150.751 86.8461 150.656 87.2344 150.656C87.546 150.656 87.8245 150.71 88.0698 150.817C88.315 150.925 88.5219 151.073 88.6905 151.262C88.8592 151.446 88.9869 151.658 89.0738 151.898C89.1657 152.138 89.2117 152.393 89.2117 152.664C89.2117 152.731 89.2091 152.8 89.204 152.871C89.1989 152.943 89.1887 153.009 89.1734 153.07H85.8702V152.381H88.6829L88.269 152.695C88.3201 152.445 88.3022 152.222 88.2154 152.028C88.1336 151.829 88.0059 151.673 87.8322 151.561C87.6636 151.443 87.4643 151.384 87.2344 151.384C87.0045 151.384 86.8001 151.443 86.6213 151.561C86.4424 151.673 86.3045 151.837 86.2074 152.051C86.1103 152.261 86.072 152.516 86.0924 152.818C86.0669 153.099 86.1052 153.344 86.2074 153.553C86.3147 153.763 86.4629 153.926 86.6519 154.044C86.8461 154.161 87.0658 154.22 87.311 154.22C87.5614 154.22 87.7734 154.164 87.9471 154.051C88.126 153.939 88.2665 153.793 88.3687 153.615L89.0738 153.96C88.992 154.154 88.8643 154.33 88.6905 154.488C88.5219 154.642 88.3176 154.764 88.0774 154.856C87.8424 154.943 87.5844 154.987 87.3034 154.987ZM89.9036 154.895V150.748H90.7313V151.584L90.6547 151.461C90.7467 151.19 90.8948 150.996 91.0992 150.879C91.3036 150.756 91.5488 150.695 91.835 150.695H92.0879V151.484H91.7277C91.4415 151.484 91.2091 151.573 91.0302 151.752C90.8565 151.926 90.7697 152.176 90.7697 152.503V154.895H89.9036Z" fill="#232340"/>
<path d="M32.3352 72.9512V65.3382H33.5411V68.69H37.0665V65.3382H38.2621V72.9512H37.0665V69.7629H33.5411V72.9512H32.3352ZM42.1184 73.0738C41.5666 73.0738 41.0761 72.9478 40.6469 72.6957C40.2245 72.4368 39.8941 72.0894 39.6557 71.6534C39.4173 71.2106 39.298 70.7167 39.298 70.1717C39.298 69.613 39.4173 69.1191 39.6557 68.69C39.9009 68.2608 40.2279 67.9235 40.6367 67.6783C41.0454 67.4262 41.5087 67.3002 42.0264 67.3002C42.442 67.3002 42.8133 67.3717 43.1403 67.5148C43.4673 67.6579 43.7432 67.8554 43.968 68.1075C44.1928 68.3527 44.3631 68.6355 44.4789 68.9556C44.6016 69.2758 44.6629 69.6165 44.6629 69.9775C44.6629 70.0661 44.6595 70.158 44.6527 70.2534C44.6459 70.3488 44.6322 70.4374 44.6118 70.5191H40.2075V69.5994H43.9578L43.406 70.0184C43.4741 69.6846 43.4503 69.3882 43.3344 69.1294C43.2254 68.8637 43.0551 68.6559 42.8235 68.506C42.5987 68.3493 42.333 68.271 42.0264 68.271C41.7199 68.271 41.4474 68.3493 41.2089 68.506C40.9705 68.6559 40.7866 68.8739 40.6571 69.16C40.5277 69.4393 40.4766 69.78 40.5039 70.1819C40.4698 70.5566 40.5209 70.8836 40.6571 71.1629C40.8002 71.4422 40.9978 71.6602 41.2498 71.8169C41.5087 71.9736 41.8016 72.0519 42.1286 72.0519C42.4624 72.0519 42.7452 71.977 42.9768 71.8271C43.2152 71.6772 43.4026 71.4831 43.5388 71.2446L44.4789 71.7045C44.3699 71.9634 44.1996 72.1984 43.968 72.4096C43.7432 72.614 43.4707 72.7775 43.1505 72.9001C42.8371 73.0159 42.4931 73.0738 42.1184 73.0738ZM45.5854 72.9512V65.2156H46.7402V72.9512H45.5854ZM47.8859 74.9949V67.4228H48.9895V68.5673L48.8566 68.3016C49.061 67.9883 49.3335 67.743 49.6741 67.5659C50.0148 67.3888 50.4031 67.3002 50.8391 67.3002C51.3636 67.3002 51.8337 67.4262 52.2493 67.6783C52.6716 67.9304 53.002 68.2744 53.2405 68.7104C53.4857 69.1464 53.6084 69.6369 53.6084 70.1819C53.6084 70.7269 53.4857 71.2174 53.2405 71.6534C53.002 72.0894 52.675 72.4368 52.2595 72.6957C51.8439 72.9478 51.3705 73.0738 50.8391 73.0738C50.4099 73.0738 50.0182 72.9852 49.6639 72.8081C49.3165 72.631 49.0474 72.3755 48.8566 72.0417L49.0406 71.8271V74.9949H47.8859ZM50.7267 72.0008C51.0537 72.0008 51.3432 71.9225 51.5953 71.7658C51.8473 71.6091 52.0449 71.3945 52.188 71.122C52.3378 70.8427 52.4128 70.5293 52.4128 70.1819C52.4128 69.8345 52.3378 69.5245 52.188 69.252C52.0449 68.9795 51.8473 68.7649 51.5953 68.6082C51.3432 68.4515 51.0537 68.3732 50.7267 68.3732C50.4065 68.3732 50.117 68.4515 49.8581 68.6082C49.606 68.7649 49.405 68.9795 49.2552 69.252C49.1121 69.5245 49.0406 69.8345 49.0406 70.1819C49.0406 70.5293 49.1121 70.8427 49.2552 71.122C49.405 71.3945 49.606 71.6091 49.8581 71.7658C50.117 71.9225 50.4065 72.0008 50.7267 72.0008ZM59.7675 73.0738C59.2293 73.0738 58.7286 72.975 58.2653 72.7775C57.8089 72.5799 57.4103 72.3074 57.0697 71.96C56.7359 71.6057 56.4736 71.1901 56.2829 70.7133C56.0921 70.2364 55.9968 69.7118 55.9968 69.1396C55.9968 68.5741 56.0887 68.053 56.2727 67.5761C56.4634 67.0924 56.7291 66.6769 57.0697 66.3294C57.4103 65.9752 57.8089 65.7027 58.2653 65.5119C58.7218 65.3144 59.2225 65.2156 59.7675 65.2156C60.3057 65.2156 60.7859 65.3075 61.2083 65.4915C61.6375 65.6754 61.9986 65.9173 62.2915 66.217C62.5844 66.51 62.7956 66.8301 62.9251 67.1776L61.8419 67.6885C61.6784 67.2798 61.4161 66.9494 61.055 66.6973C60.7008 66.4384 60.2716 66.309 59.7675 66.309C59.2633 66.309 58.8171 66.4282 58.4288 66.6666C58.0405 66.9051 57.7373 67.2355 57.5193 67.6579C57.3082 68.0802 57.2026 68.5741 57.2026 69.1396C57.2026 69.705 57.3082 70.2023 57.5193 70.6315C57.7373 71.0539 58.0405 71.3843 58.4288 71.6227C58.8171 71.8544 59.2633 71.9702 59.7675 71.9702C60.2716 71.9702 60.7008 71.8441 61.055 71.5921C61.4161 71.34 61.6784 71.0096 61.8419 70.6009L62.9251 71.1118C62.7956 71.4524 62.5844 71.7726 62.2915 72.0724C61.9986 72.3721 61.6375 72.614 61.2083 72.7979C60.7859 72.9818 60.3057 73.0738 59.7675 73.0738ZM66.344 73.0738C65.7922 73.0738 65.3017 72.9478 64.8725 72.6957C64.4502 72.4368 64.1198 72.0894 63.8813 71.6534C63.6429 71.2106 63.5237 70.7167 63.5237 70.1717C63.5237 69.613 63.6429 69.1191 63.8813 68.69C64.1266 68.2608 64.4536 67.9235 64.8623 67.6783C65.2711 67.4262 65.7343 67.3002 66.2521 67.3002C66.6676 67.3002 67.0389 67.3717 67.3659 67.5148C67.6929 67.6579 67.9688 67.8554 68.1936 68.1075C68.4184 68.3527 68.5888 68.6355 68.7046 68.9556C68.8272 69.2758 68.8885 69.6165 68.8885 69.9775C68.8885 70.0661 68.8851 70.158 68.8783 70.2534C68.8715 70.3488 68.8578 70.4374 68.8374 70.5191H64.4331V69.5994H68.1834L67.6316 70.0184C67.6997 69.6846 67.6759 69.3882 67.5601 69.1294C67.4511 68.8637 67.2808 68.6559 67.0491 68.506C66.8243 68.3493 66.5586 68.271 66.2521 68.271C65.9455 68.271 65.673 68.3493 65.4346 68.506C65.1961 68.6559 65.0122 68.8739 64.8828 69.16C64.7533 69.4393 64.7022 69.78 64.7295 70.1819C64.6954 70.5566 64.7465 70.8836 64.8828 71.1629C65.0258 71.4422 65.2234 71.6602 65.4754 71.8169C65.7343 71.9736 66.0273 72.0519 66.3543 72.0519C66.6881 72.0519 66.9708 71.977 67.2024 71.8271C67.4408 71.6772 67.6282 71.4831 67.7644 71.2446L68.7046 71.7045C68.5956 71.9634 68.4253 72.1984 68.1936 72.4096C67.9688 72.614 67.6963 72.7775 67.3761 72.9001C67.0628 73.0159 66.7187 73.0738 66.344 73.0738ZM69.8111 72.9512V67.4228H70.9147V68.506L70.7818 68.363C70.9181 68.0155 71.1361 67.7532 71.4358 67.5761C71.7356 67.3922 72.083 67.3002 72.4782 67.3002C72.8869 67.3002 73.248 67.3888 73.5613 67.5659C73.8747 67.743 74.12 67.9883 74.2971 68.3016C74.4742 68.615 74.5628 68.9761 74.5628 69.3848V72.9512H73.4183V69.6914C73.4183 69.4121 73.3672 69.177 73.265 68.9863C73.1628 68.7887 73.0163 68.6389 72.8256 68.5367C72.6417 68.4277 72.4305 68.3732 72.192 68.3732C71.9536 68.3732 71.739 68.4277 71.5483 68.5367C71.3643 68.6389 71.2213 68.7887 71.1191 68.9863C71.0169 69.1839 70.9658 69.4189 70.9658 69.6914V72.9512H69.8111ZM77.9854 73.0125C77.4064 73.0125 76.9567 72.849 76.6366 72.522C76.3164 72.195 76.1563 71.7351 76.1563 71.1425V68.4651H75.1855V67.4228H75.3388C75.5977 67.4228 75.7986 67.3479 75.9417 67.198C76.0847 67.0481 76.1563 66.8438 76.1563 66.5849V66.1557H77.311V67.4228H78.5679V68.4651H77.311V71.0914C77.311 71.2821 77.3417 71.4456 77.403 71.5819C77.4643 71.7113 77.5631 71.8135 77.6993 71.8884C77.8356 71.9565 78.0127 71.9906 78.2307 71.9906C78.2852 71.9906 78.3465 71.9872 78.4146 71.9804C78.4827 71.9736 78.5475 71.9668 78.6088 71.96V72.9512C78.5134 72.9648 78.4078 72.9784 78.292 72.992C78.1762 73.0057 78.074 73.0125 77.9854 73.0125ZM82.027 73.0738C81.4752 73.0738 80.9847 72.9478 80.5555 72.6957C80.1332 72.4368 79.8027 72.0894 79.5643 71.6534C79.3259 71.2106 79.2067 70.7167 79.2067 70.1717C79.2067 69.613 79.3259 69.1191 79.5643 68.69C79.8096 68.2608 80.1366 67.9235 80.5453 67.6783C80.9541 67.4262 81.4173 67.3002 81.9351 67.3002C82.3506 67.3002 82.7219 67.3717 83.0489 67.5148C83.3759 67.6579 83.6518 67.8554 83.8766 68.1075C84.1014 68.3527 84.2717 68.6355 84.3876 68.9556C84.5102 69.2758 84.5715 69.6165 84.5715 69.9775C84.5715 70.0661 84.5681 70.158 84.5613 70.2534C84.5545 70.3488 84.5408 70.4374 84.5204 70.5191H80.1161V69.5994H83.8664L83.3146 70.0184C83.3827 69.6846 83.3589 69.3882 83.2431 69.1294C83.1341 68.8637 82.9637 68.6559 82.7321 68.506C82.5073 68.3493 82.2416 68.271 81.9351 68.271C81.6285 68.271 81.356 68.3493 81.1176 68.506C80.8791 68.6559 80.6952 68.8739 80.5657 69.16C80.4363 69.4393 80.3852 69.78 80.4125 70.1819C80.3784 70.5566 80.4295 70.8836 80.5657 71.1629C80.7088 71.4422 80.9064 71.6602 81.1584 71.8169C81.4173 71.9736 81.7102 72.0519 82.0372 72.0519C82.3711 72.0519 82.6538 71.977 82.8854 71.8271C83.1238 71.6772 83.3112 71.4831 83.4474 71.2446L84.3876 71.7045C84.2786 71.9634 84.1082 72.1984 83.8766 72.4096C83.6518 72.614 83.3793 72.7775 83.0591 72.9001C82.7457 73.0159 82.4017 73.0738 82.027 73.0738ZM85.4941 72.9512V67.4228H86.5977V68.5367L86.4955 68.3732C86.6181 68.0121 86.8157 67.7532 87.0882 67.5965C87.3607 67.433 87.6877 67.3513 88.0692 67.3513H88.4064V68.4038H87.9261C87.5446 68.4038 87.2346 68.523 86.9962 68.7615C86.7646 68.9931 86.6488 69.3269 86.6488 69.7629V72.9512H85.4941Z" fill="white"/>
<path d="M14.1685 89.3887V83.6789H14.9196V86.2234H17.7783V83.6789H18.537V89.3887H17.7783V86.9132H14.9196V89.3887H14.1685ZM20.7776 89.4806C20.5068 89.4806 20.2667 89.4321 20.0572 89.335C19.8528 89.2328 19.6919 89.0949 19.5744 88.9212C19.4569 88.7423 19.3981 88.538 19.3981 88.308C19.3981 88.0883 19.4441 87.8916 19.5361 87.7179C19.6331 87.5391 19.7813 87.3884 19.9806 87.2657C20.185 87.1431 20.4404 87.0562 20.747 87.0051L22.2798 86.7522V87.35L20.9079 87.58C20.6422 87.6259 20.4481 87.7102 20.3255 87.8329C20.2079 87.9555 20.1492 88.1062 20.1492 88.285C20.1492 88.4537 20.2156 88.5942 20.3485 88.7066C20.4864 88.819 20.6576 88.8752 20.8619 88.8752C21.1225 88.8752 21.3473 88.8215 21.5364 88.7142C21.7305 88.6018 21.8813 88.4511 21.9886 88.2621C22.101 88.073 22.1572 87.8635 22.1572 87.6336V86.5836C22.1572 86.3588 22.0729 86.1774 21.9043 86.0395C21.7408 85.8964 21.5236 85.8249 21.2528 85.8249C21.0178 85.8249 20.8083 85.8862 20.6244 86.0088C20.4455 86.1263 20.3127 86.2847 20.2258 86.484L19.605 86.1621C19.6817 85.9731 19.8043 85.8044 19.9729 85.6563C20.1415 85.503 20.3382 85.3829 20.563 85.2961C20.7879 85.2092 21.0229 85.1658 21.2681 85.1658C21.5849 85.1658 21.8634 85.2271 22.1035 85.3497C22.3437 85.4672 22.5302 85.6333 22.663 85.8479C22.801 86.0574 22.8699 86.3026 22.8699 86.5836V89.3887H22.1725V88.6069L22.3028 88.6529C22.2159 88.8164 22.0984 88.9595 21.9502 89.0821C21.8021 89.2047 21.6284 89.3018 21.4291 89.3733C21.2298 89.4449 21.0127 89.4806 20.7776 89.4806ZM24.8965 89.3887L23.2794 85.2577H24.0765L25.3717 88.7526H25.0958L26.3987 85.2577H27.1958L25.571 89.3887H24.8965ZM27.6801 89.3887V85.2577H28.3929V89.3887H27.6801ZM27.6801 84.5986V83.6789H28.3929V84.5986H27.6801ZM29.3456 89.3887V85.2577H30.043V86.0625L29.9281 85.9935C30.0302 85.7329 30.1937 85.5311 30.4186 85.388C30.6485 85.2399 30.9167 85.1658 31.2233 85.1658C31.5196 85.1658 31.7828 85.2322 32.0127 85.365C32.2477 85.4979 32.4316 85.6818 32.5645 85.9169C32.7024 86.1519 32.7714 86.4176 32.7714 86.7139V89.3887H32.051V86.9438C32.051 86.7139 32.0101 86.5198 31.9284 86.3614C31.8466 86.203 31.7291 86.0804 31.5758 85.9935C31.4277 85.9015 31.2565 85.8555 31.0623 85.8555C30.8682 85.8555 30.6945 85.9015 30.5412 85.9935C30.393 86.0804 30.2755 86.2055 30.1886 86.369C30.1018 86.5274 30.0583 86.719 30.0583 86.9438V89.3887H29.3456ZM35.6077 91.0748C35.3165 91.0748 35.0457 91.0288 34.7953 90.9368C34.5501 90.8448 34.338 90.7171 34.1592 90.5536C33.9855 90.3952 33.8527 90.2087 33.7607 89.9941L34.4275 89.6876C34.499 89.8817 34.6344 90.0452 34.8337 90.1781C35.038 90.316 35.2935 90.385 35.6001 90.385C35.8351 90.385 36.0471 90.339 36.2362 90.247C36.4303 90.1602 36.5836 90.0273 36.696 89.8485C36.8084 89.6748 36.8646 89.4628 36.8646 89.2124V88.285L36.9949 88.423C36.8519 88.704 36.6449 88.9186 36.3741 89.0668C36.1084 89.215 35.8147 89.289 35.4928 89.289C35.1044 89.289 34.757 89.1996 34.4504 89.0208C34.1439 88.8369 33.9037 88.5891 33.73 88.2774C33.5563 87.9606 33.4694 87.6106 33.4694 87.2274C33.4694 86.8391 33.5563 86.4891 33.73 86.1774C33.9037 85.8658 34.1413 85.6205 34.4428 85.4417C34.7493 85.2577 35.0968 85.1658 35.4851 85.1658C35.807 85.1658 36.0982 85.2399 36.3588 85.388C36.6245 85.5311 36.8365 85.7304 36.9949 85.9858L36.8876 86.1774V85.2577H37.5851V89.2124C37.5851 89.5701 37.5007 89.8894 37.3321 90.1704C37.1635 90.4514 36.9285 90.6711 36.627 90.8295C36.3307 90.993 35.9909 91.0748 35.6077 91.0748ZM35.5541 88.5993C35.7993 88.5993 36.019 88.538 36.2132 88.4153C36.4124 88.2927 36.5708 88.1292 36.6884 87.9248C36.8059 87.7154 36.8646 87.4829 36.8646 87.2274C36.8646 86.977 36.8059 86.7471 36.6884 86.5376C36.5708 86.3282 36.4124 86.1621 36.2132 86.0395C36.019 85.9169 35.7993 85.8555 35.5541 85.8555C35.3037 85.8555 35.0763 85.9169 34.872 86.0395C34.6676 86.1621 34.5067 86.3282 34.3891 86.5376C34.2767 86.742 34.2205 86.9719 34.2205 87.2274C34.2205 87.4829 34.2767 87.7154 34.3891 87.9248C34.5067 88.1292 34.665 88.2927 34.8643 88.4153C35.0687 88.538 35.2986 88.5993 35.5541 88.5993ZM40.7889 89.3887V84.3687H39.2407V83.6789H43.0728V84.3687H41.5476V89.3887H40.7889ZM43.1026 89.3887V85.2577H43.8V86.0165L43.7234 85.9092C43.8204 85.6742 43.9686 85.5004 44.1679 85.388C44.3671 85.2705 44.6098 85.2118 44.896 85.2118H45.1489V85.8862H44.7887C44.4974 85.8862 44.2624 85.9782 44.0836 86.1621C43.9048 86.3409 43.8153 86.5964 43.8153 86.9285V89.3887H43.1026ZM47.5907 89.4806C47.1922 89.4806 46.832 89.3887 46.5101 89.2047C46.1882 89.0157 45.9327 88.7577 45.7437 88.4307C45.5546 88.1037 45.4601 87.7332 45.4601 87.3194C45.4601 86.9055 45.5521 86.5376 45.736 86.2157C45.9251 85.8939 46.1805 85.6384 46.5024 85.4493C46.8243 85.2603 47.1871 85.1658 47.5907 85.1658C47.9893 85.1658 48.3495 85.2603 48.6714 85.4493C48.9932 85.6333 49.2462 85.8862 49.4301 86.2081C49.6191 86.53 49.7137 86.9004 49.7137 87.3194C49.7137 87.7383 49.6166 88.1113 49.4224 88.4383C49.2283 88.7602 48.9703 89.0157 48.6484 89.2047C48.3316 89.3887 47.979 89.4806 47.5907 89.4806ZM47.5907 88.7909C47.8462 88.7909 48.0761 88.727 48.2805 88.5993C48.49 88.4715 48.6535 88.2953 48.771 88.0705C48.8936 87.8456 48.9549 87.5953 48.9549 87.3194C48.9549 87.0384 48.8936 86.7906 48.771 86.576C48.6535 86.3563 48.49 86.1825 48.2805 86.0548C48.0761 85.922 47.8462 85.8555 47.5907 85.8555C47.3301 85.8555 47.0951 85.922 46.8856 86.0548C46.6813 86.1825 46.5178 86.3563 46.3951 86.576C46.2725 86.7906 46.2112 87.0384 46.2112 87.3194C46.2112 87.5953 46.2725 87.8456 46.3951 88.0705C46.5178 88.2953 46.6813 88.4715 46.8856 88.5993C47.0951 88.727 47.3301 88.7909 47.5907 88.7909ZM51.9539 89.4806C51.6575 89.4806 51.3893 89.4117 51.1491 89.2737C50.9141 89.1358 50.7302 88.9442 50.5973 88.6989C50.4696 88.4485 50.4057 88.1624 50.4057 87.8405V85.2577H51.1185V87.7639C51.1185 87.9683 51.1593 88.1471 51.2411 88.3004C51.328 88.4537 51.4455 88.5737 51.5936 88.6606C51.7469 88.7474 51.9206 88.7909 52.1148 88.7909C52.309 88.7909 52.4801 88.7474 52.6283 88.6606C52.7816 88.5737 52.8991 88.4485 52.9808 88.285C53.0677 88.1215 53.1111 87.9274 53.1111 87.7026V85.2577H53.8315V89.3887H53.1341V88.5839L53.2491 88.6529C53.152 88.9135 52.9859 89.1179 52.7509 89.266C52.521 89.4091 52.2553 89.4806 51.9539 89.4806ZM56.9208 89.4806C56.5887 89.4806 56.2846 89.4066 56.0087 89.2584C55.7379 89.1102 55.5285 88.9007 55.3803 88.6299L55.4799 88.5073V89.3887H54.7825V83.587H55.4952V86.1468L55.388 85.9705C55.5412 85.7252 55.7507 85.5311 56.0164 85.388C56.2821 85.2399 56.5861 85.1658 56.9284 85.1658C57.3167 85.1658 57.6642 85.2603 57.9707 85.4493C58.2824 85.6384 58.5277 85.8964 58.7065 86.2234C58.8853 86.5453 58.9747 86.9132 58.9747 87.327C58.9747 87.7307 58.8853 88.096 58.7065 88.423C58.5277 88.75 58.2824 89.008 57.9707 89.1971C57.6642 89.3861 57.3142 89.4806 56.9208 89.4806ZM56.8671 88.7909C57.1277 88.7909 57.3602 88.727 57.5645 88.5993C57.7689 88.4715 57.9273 88.2978 58.0397 88.0781C58.1572 87.8533 58.216 87.6029 58.216 87.327C58.216 87.0409 58.1572 86.7906 58.0397 86.576C57.9273 86.3563 57.7689 86.1825 57.5645 86.0548C57.3602 85.922 57.1277 85.8555 56.8671 85.8555C56.6065 85.8555 56.3715 85.9194 56.162 86.0471C55.9576 86.1749 55.7941 86.3511 55.6715 86.576C55.554 86.7957 55.4952 87.046 55.4952 87.327C55.4952 87.6029 55.554 87.8533 55.6715 88.0781C55.7941 88.2978 55.9576 88.4715 56.162 88.5993C56.3715 88.727 56.6065 88.7909 56.8671 88.7909ZM59.756 89.3887V83.587H60.4688V89.3887H59.756ZM63.3222 89.4806C62.9236 89.4806 62.5685 89.3861 62.2569 89.1971C61.9452 89.008 61.6999 88.75 61.5211 88.423C61.3423 88.0909 61.2529 87.7205 61.2529 87.3117C61.2529 86.8979 61.3397 86.53 61.5135 86.2081C61.6923 85.8862 61.9324 85.6333 62.2339 85.4493C62.5404 85.2603 62.8828 85.1658 63.2609 85.1658C63.5674 85.1658 63.8382 85.222 64.0732 85.3344C64.3134 85.4417 64.5152 85.5899 64.6787 85.7789C64.8473 85.9628 64.9751 86.1749 65.0619 86.415C65.1539 86.65 65.1999 86.8953 65.1999 87.1508C65.1999 87.207 65.1948 87.2708 65.1845 87.3424C65.1794 87.4088 65.1718 87.4727 65.1615 87.534H61.774V86.9208H64.7477L64.4105 87.1967C64.4565 86.9311 64.4309 86.6935 64.3338 86.484C64.2367 86.2745 64.0937 86.1085 63.9046 85.9858C63.7156 85.8632 63.501 85.8019 63.2609 85.8019C63.0207 85.8019 62.801 85.8632 62.6017 85.9858C62.4025 86.1085 62.2466 86.2847 62.1342 86.5146C62.0269 86.7395 61.9835 87.0077 62.004 87.3194C61.9835 87.6208 62.0295 87.8865 62.1419 88.1164C62.2594 88.3412 62.4229 88.5175 62.6324 88.6453C62.847 88.7679 63.0795 88.8292 63.3298 88.8292C63.6057 88.8292 63.8382 88.7653 64.0273 88.6376C64.2163 88.5099 64.3696 88.3464 64.4871 88.1471L65.0849 88.4537C65.0032 88.6427 64.8754 88.8164 64.7017 88.9748C64.5331 89.1281 64.3313 89.2507 64.0962 89.3427C63.8663 89.4347 63.6083 89.4806 63.3222 89.4806ZM67.1474 89.3887V85.2577H67.8601V89.3887H67.1474ZM67.1474 84.5986V83.6789H67.8601V84.5986H67.1474ZM68.8128 89.3887V85.2577H69.5102V86.0625L69.3953 85.9935C69.4975 85.7329 69.661 85.5311 69.8858 85.388C70.1157 85.2399 70.3839 85.1658 70.6905 85.1658C70.9869 85.1658 71.25 85.2322 71.4799 85.365C71.7149 85.4979 71.8989 85.6818 72.0317 85.9169C72.1697 86.1519 72.2387 86.4176 72.2387 86.7139V89.3887H71.5182V86.9438C71.5182 86.7139 71.4774 86.5198 71.3956 86.3614C71.3139 86.203 71.1963 86.0804 71.0431 85.9935C70.8949 85.9015 70.7237 85.8555 70.5296 85.8555C70.3354 85.8555 70.1617 85.9015 70.0084 85.9935C69.8602 86.0804 69.7427 86.2055 69.6559 86.369C69.569 86.5274 69.5256 86.719 69.5256 86.9438V89.3887H68.8128ZM74.3611 89.3887V83.6789H75.1121V88.6989H77.6183V89.3887H74.3611ZM80.1256 89.4806C79.7271 89.4806 79.372 89.3861 79.0603 89.1971C78.7486 89.008 78.5034 88.75 78.3246 88.423C78.1457 88.0909 78.0563 87.7205 78.0563 87.3117C78.0563 86.8979 78.1432 86.53 78.3169 86.2081C78.4957 85.8862 78.7359 85.6333 79.0373 85.4493C79.3439 85.2603 79.6862 85.1658 80.0643 85.1658C80.3709 85.1658 80.6417 85.222 80.8767 85.3344C81.1168 85.4417 81.3187 85.5899 81.4822 85.7789C81.6508 85.9628 81.7785 86.1749 81.8654 86.415C81.9573 86.65 82.0033 86.8953 82.0033 87.1508C82.0033 87.207 81.9982 87.2708 81.988 87.3424C81.9829 87.4088 81.9752 87.4727 81.965 87.534H78.5775V86.9208H81.5511L81.2139 87.1967C81.2599 86.9311 81.2344 86.6935 81.1373 86.484C81.0402 86.2745 80.8971 86.1085 80.7081 85.9858C80.519 85.8632 80.3045 85.8019 80.0643 85.8019C79.8242 85.8019 79.6045 85.8632 79.4052 85.9858C79.2059 86.1085 79.0501 86.2847 78.9377 86.5146C78.8304 86.7395 78.787 87.0077 78.8074 87.3194C78.787 87.6208 78.833 87.8865 78.9454 88.1164C79.0629 88.3412 79.2264 88.5175 79.4359 88.6453C79.6505 88.7679 79.8829 88.8292 80.1333 88.8292C80.4092 88.8292 80.6417 88.7653 80.8307 88.6376C81.0198 88.5099 81.173 88.3464 81.2906 88.1471L81.8884 88.4537C81.8066 88.6427 81.6789 88.8164 81.5052 88.9748C81.3365 89.1281 81.1347 89.2507 80.8997 89.3427C80.6698 89.4347 80.4118 89.4806 80.1256 89.4806ZM83.9379 89.4806C83.6671 89.4806 83.427 89.4321 83.2175 89.335C83.0131 89.2328 82.8522 89.0949 82.7346 88.9212C82.6171 88.7423 82.5584 88.538 82.5584 88.308C82.5584 88.0883 82.6044 87.8916 82.6963 87.7179C82.7934 87.5391 82.9416 87.3884 83.1408 87.2657C83.3452 87.1431 83.6007 87.0562 83.9072 87.0051L85.4401 86.7522V87.35L84.0682 87.58C83.8025 87.6259 83.6083 87.7102 83.4857 87.8329C83.3682 87.9555 83.3094 88.1062 83.3094 88.285C83.3094 88.4537 83.3759 88.5942 83.5087 88.7066C83.6467 88.819 83.8178 88.8752 84.0222 88.8752C84.2828 88.8752 84.5076 88.8215 84.6966 88.7142C84.8908 88.6018 85.0415 88.4511 85.1488 88.2621C85.2612 88.073 85.3174 87.8635 85.3174 87.6336V86.5836C85.3174 86.3588 85.2331 86.1774 85.0645 86.0395C84.901 85.8964 84.6839 85.8249 84.4131 85.8249C84.178 85.8249 83.9686 85.8862 83.7846 86.0088C83.6058 86.1263 83.4729 86.2847 83.3861 86.484L82.7653 86.1621C82.8419 85.9731 82.9646 85.8044 83.1332 85.6563C83.3018 85.503 83.4985 85.3829 83.7233 85.2961C83.9481 85.2092 84.1831 85.1658 84.4284 85.1658C84.7452 85.1658 85.0236 85.2271 85.2638 85.3497C85.5039 85.4672 85.6904 85.6333 85.8233 85.8479C85.9612 86.0574 86.0302 86.3026 86.0302 86.5836V89.3887H85.3328V88.6069L85.463 88.6529C85.3762 88.8164 85.2587 88.9595 85.1105 89.0821C84.9623 89.2047 84.7886 89.3018 84.5893 89.3733C84.3901 89.4449 84.1729 89.4806 83.9379 89.4806ZM86.982 89.3887V85.2577H87.6795V86.0165L87.6028 85.9092C87.6999 85.6742 87.8481 85.5004 88.0473 85.388C88.2466 85.2705 88.4893 85.2118 88.7754 85.2118H89.0283V85.8862H88.6681C88.3769 85.8862 88.1419 85.9782 87.963 86.1621C87.7842 86.3409 87.6948 86.5964 87.6948 86.9285V89.3887H86.982ZM89.5082 89.3887V85.2577H90.2056V86.0625L90.0906 85.9935C90.1928 85.7329 90.3563 85.5311 90.5811 85.388C90.8111 85.2399 91.0793 85.1658 91.3859 85.1658C91.6822 85.1658 91.9454 85.2322 92.1753 85.365C92.4103 85.4979 92.5942 85.6818 92.7271 85.9169C92.865 86.1519 92.934 86.4176 92.934 86.7139V89.3887H92.2136V86.9438C92.2136 86.7139 92.1727 86.5198 92.091 86.3614C92.0092 86.203 91.8917 86.0804 91.7384 85.9935C91.5903 85.9015 91.4191 85.8555 91.2249 85.8555C91.0308 85.8555 90.8571 85.9015 90.7038 85.9935C90.5556 86.0804 90.4381 86.2055 90.3512 86.369C90.2644 86.5274 90.2209 86.719 90.2209 86.9438V89.3887H89.5082ZM93.8007 89.3887V85.2577H94.5134V89.3887H93.8007ZM93.8007 84.5986V83.6789H94.5134V84.5986H93.8007ZM95.4661 89.3887V85.2577H96.1635V86.0625L96.0486 85.9935C96.1507 85.7329 96.3142 85.5311 96.5391 85.388C96.769 85.2399 97.0372 85.1658 97.3438 85.1658C97.6401 85.1658 97.9033 85.2322 98.1332 85.365C98.3682 85.4979 98.5522 85.6818 98.685 85.9169C98.8229 86.1519 98.8919 86.4176 98.8919 86.7139V89.3887H98.1715V86.9438C98.1715 86.7139 98.1306 86.5198 98.0489 86.3614C97.9671 86.203 97.8496 86.0804 97.6963 85.9935C97.5482 85.9015 97.377 85.8555 97.1828 85.8555C96.9887 85.8555 96.815 85.9015 96.6617 85.9935C96.5135 86.0804 96.396 86.2055 96.3091 86.369C96.2223 86.5274 96.1788 86.719 96.1788 86.9438V89.3887H95.4661ZM101.728 91.0748C101.437 91.0748 101.166 91.0288 100.916 90.9368C100.671 90.8448 100.459 90.7171 100.28 90.5536C100.106 90.3952 99.9732 90.2087 99.8812 89.9941L100.548 89.6876C100.619 89.8817 100.755 90.0452 100.954 90.1781C101.159 90.316 101.414 90.385 101.721 90.385C101.956 90.385 102.168 90.339 102.357 90.247C102.551 90.1602 102.704 90.0273 102.817 89.8485C102.929 89.6748 102.985 89.4628 102.985 89.2124V88.285L103.115 88.423C102.972 88.704 102.765 88.9186 102.495 89.0668C102.229 89.215 101.935 89.289 101.613 89.289C101.225 89.289 100.878 89.1996 100.571 89.0208C100.264 88.8369 100.024 88.5891 99.8505 88.2774C99.6768 87.9606 99.59 87.6106 99.59 87.2274C99.59 86.8391 99.6768 86.4891 99.8505 86.1774C100.024 85.8658 100.262 85.6205 100.563 85.4417C100.87 85.2577 101.217 85.1658 101.606 85.1658C101.927 85.1658 102.219 85.2399 102.479 85.388C102.745 85.5311 102.957 85.7304 103.115 85.9858L103.008 86.1774V85.2577H103.706V89.2124C103.706 89.5701 103.621 89.8894 103.453 90.1704C103.284 90.4514 103.049 90.6711 102.748 90.8295C102.451 90.993 102.111 91.0748 101.728 91.0748ZM101.675 88.5993C101.92 88.5993 102.14 88.538 102.334 88.4153C102.533 88.2927 102.691 88.1292 102.809 87.9248C102.926 87.7154 102.985 87.4829 102.985 87.2274C102.985 86.977 102.926 86.7471 102.809 86.5376C102.691 86.3282 102.533 86.1621 102.334 86.0395C102.14 85.9169 101.92 85.8555 101.675 85.8555C101.424 85.8555 101.197 85.9169 100.992 86.0395C100.788 86.1621 100.627 86.3282 100.51 86.5376C100.397 86.742 100.341 86.9719 100.341 87.2274C100.341 87.4829 100.397 87.7154 100.51 87.9248C100.627 88.1292 100.786 88.2927 100.985 88.4153C101.189 88.538 101.419 88.5993 101.675 88.5993ZM104.949 89.3887V88.469H105.692V89.3887H104.949ZM14.075 99.3887V93.6789H16.0906C16.4687 93.6789 16.8008 93.7505 17.0869 93.8935C17.3731 94.0366 17.5953 94.241 17.7537 94.5067C17.9172 94.7724 17.999 95.084 17.999 95.4417C17.999 95.7993 17.9172 96.111 17.7537 96.3767C17.5953 96.6373 17.3731 96.8416 17.0869 96.9898C16.8059 97.1329 16.4738 97.2044 16.0906 97.2044H14.826V99.3887H14.075ZM14.826 96.5146H16.1136C16.3435 96.5146 16.5428 96.4712 16.7114 96.3844C16.88 96.2975 17.0103 96.1723 17.1023 96.0088C17.1942 95.8453 17.2402 95.6563 17.2402 95.4417C17.2402 95.222 17.1942 95.0329 17.1023 94.8745C17.0103 94.711 16.88 94.5859 16.7114 94.499C16.5428 94.4121 16.3435 94.3687 16.1136 94.3687H14.826V96.5146ZM18.7771 99.3887V93.587H19.4899V99.3887H18.7771ZM22.3432 99.4806C21.9447 99.4806 21.5896 99.3861 21.2779 99.1971C20.9663 99.008 20.721 98.75 20.5422 98.423C20.3634 98.0909 20.2739 97.7205 20.2739 97.3117C20.2739 96.8979 20.3608 96.53 20.5345 96.2081C20.7133 95.8862 20.9535 95.6333 21.2549 95.4493C21.5615 95.2603 21.9038 95.1658 22.2819 95.1658C22.5885 95.1658 22.8593 95.222 23.0943 95.3344C23.3345 95.4417 23.5363 95.5899 23.6998 95.7789C23.8684 95.9628 23.9961 96.1749 24.083 96.415C24.1749 96.65 24.2209 96.8953 24.2209 97.1508C24.2209 97.207 24.2158 97.2708 24.2056 97.3424C24.2005 97.4088 24.1928 97.4727 24.1826 97.534H20.7951V96.9208H23.7688L23.4315 97.1967C23.4775 96.9311 23.452 96.6935 23.3549 96.484C23.2578 96.2745 23.1148 96.1085 22.9257 95.9858C22.7367 95.8632 22.5221 95.8019 22.2819 95.8019C22.0418 95.8019 21.8221 95.8632 21.6228 95.9858C21.4236 96.1085 21.2677 96.2847 21.1553 96.5146C21.048 96.7395 21.0046 97.0077 21.025 97.3194C21.0046 97.6208 21.0506 97.8865 21.163 98.1164C21.2805 98.3412 21.444 98.5175 21.6535 98.6453C21.8681 98.7679 22.1005 98.8292 22.3509 98.8292C22.6268 98.8292 22.8593 98.7653 23.0483 98.6376C23.2374 98.5099 23.3907 98.3464 23.5082 98.1471L24.106 98.4537C24.0242 98.6427 23.8965 98.8164 23.7228 98.9748C23.5542 99.1281 23.3523 99.2507 23.1173 99.3427C22.8874 99.4347 22.6294 99.4806 22.3432 99.4806ZM26.1555 99.4806C25.8847 99.4806 25.6446 99.4321 25.4351 99.335C25.2307 99.2328 25.0698 99.0949 24.9523 98.9212C24.8347 98.7423 24.776 98.538 24.776 98.308C24.776 98.0883 24.822 97.8916 24.9139 97.7179C25.011 97.5391 25.1592 97.3884 25.3584 97.2657C25.5628 97.1431 25.8183 97.0562 26.1249 97.0051L27.6577 96.7522V97.35L26.2858 97.58C26.0201 97.6259 25.826 97.7102 25.7033 97.8329C25.5858 97.9555 25.5271 98.1062 25.5271 98.285C25.5271 98.4537 25.5935 98.5942 25.7263 98.7066C25.8643 98.819 26.0354 98.8752 26.2398 98.8752C26.5004 98.8752 26.7252 98.8215 26.9143 98.7142C27.1084 98.6018 27.2591 98.4511 27.3664 98.2621C27.4788 98.073 27.535 97.8635 27.535 97.6336V96.5836C27.535 96.3588 27.4507 96.1774 27.2821 96.0395C27.1186 95.8964 26.9015 95.8249 26.6307 95.8249C26.3957 95.8249 26.1862 95.8862 26.0022 96.0088C25.8234 96.1263 25.6906 96.2847 25.6037 96.484L24.9829 96.1621C25.0595 95.9731 25.1822 95.8044 25.3508 95.6563C25.5194 95.503 25.7161 95.3829 25.9409 95.2961C26.1657 95.2092 26.4008 95.1658 26.646 95.1658C26.9628 95.1658 27.2413 95.2271 27.4814 95.3497C27.7215 95.4672 27.908 95.6333 28.0409 95.8479C28.1788 96.0574 28.2478 96.3026 28.2478 96.5836V99.3887H27.5504V98.6069L27.6807 98.6529C27.5938 98.8164 27.4763 98.9595 27.3281 99.0821C27.1799 99.2047 27.0062 99.3018 26.807 99.3733C26.6077 99.4449 26.3905 99.4806 26.1555 99.4806ZM30.6788 99.4806C30.2649 99.4806 29.9047 99.3785 29.5982 99.1741C29.2916 98.9697 29.0745 98.6938 28.9467 98.3464L29.5139 98.0705C29.6314 98.3157 29.7923 98.5099 29.9967 98.6529C30.2011 98.796 30.4284 98.8675 30.6788 98.8675C30.9036 98.8675 31.0901 98.8139 31.2383 98.7066C31.3865 98.5993 31.4605 98.4588 31.4605 98.285C31.4605 98.1624 31.4248 98.0653 31.3532 97.9938C31.2868 97.9172 31.2051 97.8584 31.108 97.8175C31.0109 97.7716 30.9215 97.7383 30.8397 97.7179L30.219 97.5416C29.846 97.4343 29.5726 97.2811 29.3989 97.0818C29.2303 96.8825 29.146 96.65 29.146 96.3844C29.146 96.1391 29.2073 95.9271 29.3299 95.7482C29.4577 95.5643 29.6288 95.4212 29.8434 95.3191C30.0631 95.2169 30.3084 95.1658 30.5792 95.1658C30.9419 95.1658 31.2664 95.2577 31.5525 95.4417C31.8437 95.6256 32.0507 95.8836 32.1733 96.2157L31.5908 96.484C31.4989 96.2694 31.3609 96.1008 31.177 95.9782C30.993 95.8504 30.7861 95.7866 30.5562 95.7866C30.3467 95.7866 30.1806 95.8402 30.058 95.9475C29.9354 96.0497 29.8741 96.18 29.8741 96.3384C29.8741 96.4559 29.9047 96.553 29.966 96.6296C30.0274 96.7011 30.1014 96.7573 30.1883 96.7982C30.2752 96.834 30.3595 96.8646 30.4412 96.8902L31.1157 97.0895C31.4529 97.1865 31.7135 97.3373 31.8974 97.5416C32.0864 97.746 32.181 97.9913 32.181 98.2774C32.181 98.5073 32.1171 98.7142 31.9894 98.8982C31.8616 99.0821 31.6854 99.2252 31.4605 99.3274C31.2357 99.4295 30.9751 99.4806 30.6788 99.4806ZM34.8614 99.4806C34.4629 99.4806 34.1078 99.3861 33.7961 99.1971C33.4844 99.008 33.2392 98.75 33.0604 98.423C32.8815 98.0909 32.7921 97.7205 32.7921 97.3117C32.7921 96.8979 32.879 96.53 33.0527 96.2081C33.2315 95.8862 33.4717 95.6333 33.7731 95.4493C34.0797 95.2603 34.422 95.1658 34.8001 95.1658C35.1067 95.1658 35.3775 95.222 35.6125 95.3344C35.8526 95.4417 36.0544 95.5899 36.2179 95.7789C36.3866 95.9628 36.5143 96.1749 36.6011 96.415C36.6931 96.65 36.7391 96.8953 36.7391 97.1508C36.7391 97.207 36.734 97.2708 36.7238 97.3424C36.7187 97.4088 36.711 97.4727 36.7008 97.534H33.3133V96.9208H36.2869L35.9497 97.1967C35.9957 96.9311 35.9701 96.6935 35.8731 96.484C35.776 96.2745 35.6329 96.1085 35.4439 95.9858C35.2548 95.8632 35.0402 95.8019 34.8001 95.8019C34.56 95.8019 34.3402 95.8632 34.141 95.9858C33.9417 96.1085 33.7859 96.2847 33.6735 96.5146C33.5662 96.7395 33.5227 97.0077 33.5432 97.3194C33.5227 97.6208 33.5687 97.8865 33.6811 98.1164C33.7987 98.3412 33.9622 98.5175 34.1716 98.6453C34.3862 98.7679 34.6187 98.8292 34.8691 98.8292C35.145 98.8292 35.3775 98.7653 35.5665 98.6376C35.7555 98.5099 35.9088 98.3464 36.0263 98.1471L36.6241 98.4537C36.5424 98.6427 36.4147 98.8164 36.2409 98.9748C36.0723 99.1281 35.8705 99.2507 35.6355 99.3427C35.4056 99.4347 35.1475 99.4806 34.8614 99.4806ZM40.6026 99.4806C40.199 99.4806 39.8388 99.3861 39.522 99.1971C39.2103 99.008 38.9651 98.75 38.7862 98.423C38.6074 98.096 38.518 97.7281 38.518 97.3194C38.518 96.9055 38.6074 96.5376 38.7862 96.2157C38.9651 95.8939 39.2103 95.6384 39.522 95.4493C39.8388 95.2603 40.199 95.1658 40.6026 95.1658C40.8734 95.1658 41.1263 95.2143 41.3614 95.3114C41.5964 95.4085 41.8033 95.5388 41.9822 95.7023C42.161 95.8658 42.2913 96.0574 42.373 96.2771L41.7369 96.5836C41.6398 96.369 41.4917 96.1953 41.2924 96.0625C41.0931 95.9245 40.8632 95.8555 40.6026 95.8555C40.3523 95.8555 40.1249 95.9194 39.9205 96.0471C39.7213 96.1749 39.5629 96.3486 39.4454 96.5683C39.3278 96.788 39.2691 97.0409 39.2691 97.327C39.2691 97.6029 39.3278 97.8533 39.4454 98.0781C39.5629 98.2978 39.7213 98.4715 39.9205 98.5993C40.1249 98.727 40.3523 98.7909 40.6026 98.7909C40.8632 98.7909 41.0931 98.7245 41.2924 98.5916C41.4917 98.4537 41.6398 98.2723 41.7369 98.0475L42.373 98.3694C42.2913 98.5839 42.161 98.7755 41.9822 98.9442C41.8033 99.1077 41.5964 99.2379 41.3614 99.335C41.1263 99.4321 40.8734 99.4806 40.6026 99.4806ZM45.1132 99.4806C44.7147 99.4806 44.3545 99.3887 44.0326 99.2047C43.7107 99.0157 43.4552 98.7577 43.2662 98.4307C43.0771 98.1037 42.9826 97.7332 42.9826 97.3194C42.9826 96.9055 43.0746 96.5376 43.2585 96.2157C43.4476 95.8939 43.703 95.6384 44.0249 95.4493C44.3468 95.2603 44.7096 95.1658 45.1132 95.1658C45.5118 95.1658 45.872 95.2603 46.1939 95.4493C46.5158 95.6333 46.7687 95.8862 46.9526 96.2081C47.1416 96.53 47.2362 96.9004 47.2362 97.3194C47.2362 97.7383 47.1391 98.1113 46.9449 98.4383C46.7508 98.7602 46.4928 99.0157 46.1709 99.2047C45.8541 99.3887 45.5015 99.4806 45.1132 99.4806ZM45.1132 98.7909C45.3687 98.7909 45.5986 98.727 45.803 98.5993C46.0125 98.4715 46.176 98.2953 46.2935 98.0705C46.4161 97.8456 46.4774 97.5953 46.4774 97.3194C46.4774 97.0384 46.4161 96.7906 46.2935 96.576C46.176 96.3563 46.0125 96.1825 45.803 96.0548C45.5986 95.922 45.3687 95.8555 45.1132 95.8555C44.8526 95.8555 44.6176 95.922 44.4081 96.0548C44.2038 96.1825 44.0403 96.3563 43.9176 96.576C43.795 96.7906 43.7337 97.0384 43.7337 97.3194C43.7337 97.5953 43.795 97.8456 43.9176 98.0705C44.0403 98.2953 44.2038 98.4715 44.4081 98.5993C44.6176 98.727 44.8526 98.7909 45.1132 98.7909ZM48.0125 99.3887V95.2577H48.7099V96.0625L48.595 95.9935C48.6972 95.7329 48.8607 95.5311 49.0855 95.388C49.3154 95.2399 49.5837 95.1658 49.8902 95.1658C50.1866 95.1658 50.4497 95.2322 50.6796 95.365C50.9146 95.4979 51.0986 95.6818 51.2314 95.9169C51.3694 96.1519 51.4384 96.4176 51.4384 96.7139V99.3887H50.7179V96.9438C50.7179 96.7139 50.6771 96.5198 50.5953 96.3614C50.5136 96.203 50.396 96.0804 50.2428 95.9935C50.0946 95.9015 49.9234 95.8555 49.7293 95.8555C49.5351 95.8555 49.3614 95.9015 49.2081 95.9935C49.0599 96.0804 48.9424 96.2055 48.8556 96.369C48.7687 96.5274 48.7253 96.719 48.7253 96.9438V99.3887H48.0125ZM53.9834 99.4347C53.5798 99.4347 53.2681 99.3197 53.0484 99.0898C52.8338 98.8599 52.7265 98.5354 52.7265 98.1164V95.9398H51.9754V95.2577H52.1287C52.3127 95.2577 52.4583 95.2015 52.5656 95.0891C52.6729 94.9767 52.7265 94.8286 52.7265 94.6446V94.3074H53.4393V95.2577H54.3666V95.9398H53.4393V98.0934C53.4393 98.2314 53.4597 98.3515 53.5006 98.4537C53.5466 98.5558 53.6207 98.6376 53.7228 98.6989C53.825 98.7551 53.9604 98.7832 54.129 98.7832C54.1648 98.7832 54.2082 98.7807 54.2593 98.7755C54.3155 98.7704 54.3666 98.7653 54.4126 98.7602V99.3887C54.3462 99.404 54.2721 99.4142 54.1903 99.4193C54.1086 99.4295 54.0396 99.4347 53.9834 99.4347ZM56.3489 99.4806C56.0781 99.4806 55.838 99.4321 55.6285 99.335C55.4241 99.2328 55.2632 99.0949 55.1457 98.9212C55.0282 98.7423 54.9694 98.538 54.9694 98.308C54.9694 98.0883 55.0154 97.8916 55.1073 97.7179C55.2044 97.5391 55.3526 97.3884 55.5519 97.2657C55.7562 97.1431 56.0117 97.0562 56.3183 97.0051L57.8511 96.7522V97.35L56.4792 97.58C56.2135 97.6259 56.0194 97.7102 55.8967 97.8329C55.7792 97.9555 55.7205 98.1062 55.7205 98.285C55.7205 98.4537 55.7869 98.5942 55.9197 98.7066C56.0577 98.819 56.2289 98.8752 56.4332 98.8752C56.6938 98.8752 56.9186 98.8215 57.1077 98.7142C57.3018 98.6018 57.4525 98.4511 57.5598 98.2621C57.6723 98.073 57.7285 97.8635 57.7285 97.6336V96.5836C57.7285 96.3588 57.6442 96.1774 57.4755 96.0395C57.312 95.8964 57.0949 95.8249 56.8241 95.8249C56.5891 95.8249 56.3796 95.8862 56.1956 96.0088C56.0168 96.1263 55.884 96.2847 55.7971 96.484L55.1763 96.1621C55.253 95.9731 55.3756 95.8044 55.5442 95.6563C55.7128 95.503 55.9095 95.3829 56.1343 95.2961C56.3591 95.2092 56.5942 95.1658 56.8394 95.1658C57.1562 95.1658 57.4347 95.2271 57.6748 95.3497C57.9149 95.4672 58.1014 95.6333 58.2343 95.8479C58.3722 96.0574 58.4412 96.3026 58.4412 96.5836V99.3887H57.7438V98.6069L57.8741 98.6529C57.7872 98.8164 57.6697 98.9595 57.5215 99.0821C57.3734 99.2047 57.1996 99.3018 57.0004 99.3733C56.8011 99.4449 56.584 99.4806 56.3489 99.4806ZM61.3091 99.4806C60.9054 99.4806 60.5452 99.3861 60.2284 99.1971C59.9168 99.008 59.6715 98.75 59.4927 98.423C59.3139 98.096 59.2244 97.7281 59.2244 97.3194C59.2244 96.9055 59.3139 96.5376 59.4927 96.2157C59.6715 95.8939 59.9168 95.6384 60.2284 95.4493C60.5452 95.2603 60.9054 95.1658 61.3091 95.1658C61.5799 95.1658 61.8328 95.2143 62.0678 95.3114C62.3028 95.4085 62.5098 95.5388 62.6886 95.7023C62.8674 95.8658 62.9977 96.0574 63.0795 96.2771L62.4433 96.5836C62.3463 96.369 62.1981 96.1953 61.9988 96.0625C61.7996 95.9245 61.5696 95.8555 61.3091 95.8555C61.0587 95.8555 60.8313 95.9194 60.627 96.0471C60.4277 96.1749 60.2693 96.3486 60.1518 96.5683C60.0343 96.788 59.9755 97.0409 59.9755 97.327C59.9755 97.6029 60.0343 97.8533 60.1518 98.0781C60.2693 98.2978 60.4277 98.4715 60.627 98.5993C60.8313 98.727 61.0587 98.7909 61.3091 98.7909C61.5696 98.7909 61.7996 98.7245 61.9988 98.5916C62.1981 98.4537 62.3463 98.2723 62.4433 98.0475L63.0795 98.3694C62.9977 98.5839 62.8674 98.7755 62.6886 98.9442C62.5098 99.1077 62.3028 99.2379 62.0678 99.335C61.8328 99.4321 61.5799 99.4806 61.3091 99.4806ZM65.5361 99.4347C65.1325 99.4347 64.8208 99.3197 64.6011 99.0898C64.3865 98.8599 64.2792 98.5354 64.2792 98.1164V95.9398H63.5281V95.2577H63.6814C63.8653 95.2577 64.0109 95.2015 64.1182 95.0891C64.2255 94.9767 64.2792 94.8286 64.2792 94.6446V94.3074H64.9919V95.2577H65.9193V95.9398H64.9919V98.0934C64.9919 98.2314 65.0124 98.3515 65.0533 98.4537C65.0992 98.5558 65.1733 98.6376 65.2755 98.6989C65.3777 98.7551 65.5131 98.7832 65.6817 98.7832C65.7175 98.7832 65.7609 98.7807 65.812 98.7755C65.8682 98.7704 65.9193 98.7653 65.9653 98.7602V99.3887C65.8989 99.404 65.8248 99.4142 65.743 99.4193C65.6613 99.4295 65.5923 99.4347 65.5361 99.4347ZM69.3784 99.4806C69.082 99.4806 68.8138 99.4117 68.5736 99.2737C68.3386 99.1358 68.1547 98.9442 68.0218 98.6989C67.8941 98.4485 67.8302 98.1624 67.8302 97.8405V95.2577H68.543V97.7639C68.543 97.9683 68.5839 98.1471 68.6656 98.3004C68.7525 98.4537 68.87 98.5737 69.0182 98.6606C69.1714 98.7474 69.3452 98.7909 69.5393 98.7909C69.7335 98.7909 69.9046 98.7474 70.0528 98.6606C70.2061 98.5737 70.3236 98.4485 70.4054 98.285C70.4922 98.1215 70.5356 97.9274 70.5356 97.7026V95.2577H71.2561V99.3887H70.5586V98.5839L70.6736 98.6529C70.5765 98.9135 70.4105 99.1179 70.1754 99.266C69.9455 99.4091 69.6798 99.4806 69.3784 99.4806ZM73.6862 99.4806C73.2723 99.4806 72.9121 99.3785 72.6055 99.1741C72.299 98.9697 72.0818 98.6938 71.9541 98.3464L72.5212 98.0705C72.6387 98.3157 72.7997 98.5099 73.0041 98.6529C73.2084 98.796 73.4358 98.8675 73.6862 98.8675C73.911 98.8675 74.0975 98.8139 74.2456 98.7066C74.3938 98.5993 74.4679 98.4588 74.4679 98.285C74.4679 98.1624 74.4321 98.0653 74.3606 97.9938C74.2942 97.9172 74.2124 97.8584 74.1154 97.8175C74.0183 97.7716 73.9289 97.7383 73.8471 97.7179L73.2263 97.5416C72.8533 97.4343 72.58 97.2811 72.4063 97.0818C72.2377 96.8825 72.1534 96.65 72.1534 96.3844C72.1534 96.1391 72.2147 95.9271 72.3373 95.7482C72.465 95.5643 72.6362 95.4212 72.8508 95.3191C73.0705 95.2169 73.3157 95.1658 73.5865 95.1658C73.9493 95.1658 74.2737 95.2577 74.5599 95.4417C74.8511 95.6256 75.058 95.8836 75.1807 96.2157L74.5982 96.484C74.5062 96.2694 74.3683 96.1008 74.1843 95.9782C74.0004 95.8504 73.7935 95.7866 73.5635 95.7866C73.3541 95.7866 73.188 95.8402 73.0654 95.9475C72.9428 96.0497 72.8814 96.18 72.8814 96.3384C72.8814 96.4559 72.9121 96.553 72.9734 96.6296C73.0347 96.7011 73.1088 96.7573 73.1957 96.7982C73.2825 96.834 73.3668 96.8646 73.4486 96.8902L74.123 97.0895C74.4602 97.1865 74.7208 97.3373 74.9048 97.5416C75.0938 97.746 75.1883 97.9913 75.1883 98.2774C75.1883 98.5073 75.1245 98.7142 74.9967 98.8982C74.869 99.0821 74.6927 99.2252 74.4679 99.3274C74.2431 99.4295 73.9825 99.4806 73.6862 99.4806ZM77.5764 99.3887V95.9398H76.787V95.2577H77.5764V94.9665C77.5764 94.6702 77.6403 94.4198 77.768 94.2154C77.9008 94.0111 78.0746 93.8552 78.2892 93.7479C78.5089 93.6406 78.7516 93.587 79.0172 93.587C79.0734 93.587 79.1348 93.5921 79.2012 93.6023C79.2727 93.6074 79.3315 93.6151 79.3775 93.6253V94.2614C79.3366 94.2512 79.288 94.2461 79.2318 94.2461C79.1756 94.241 79.1322 94.2384 79.1016 94.2384C78.8665 94.2384 78.6724 94.2946 78.5191 94.407C78.3709 94.5194 78.2968 94.7059 78.2968 94.9665V95.2577H79.2778V95.9398H78.2968V99.3887H77.5764ZM81.7998 99.4806C81.4013 99.4806 81.0411 99.3887 80.7192 99.2047C80.3973 99.0157 80.1418 98.7577 79.9528 98.4307C79.7638 98.1037 79.6692 97.7332 79.6692 97.3194C79.6692 96.9055 79.7612 96.5376 79.9451 96.2157C80.1342 95.8939 80.3897 95.6384 80.7115 95.4493C81.0334 95.2603 81.3962 95.1658 81.7998 95.1658C82.1984 95.1658 82.5586 95.2603 82.8805 95.4493C83.2024 95.6333 83.4553 95.8862 83.6392 96.2081C83.8283 96.53 83.9228 96.9004 83.9228 97.3194C83.9228 97.7383 83.8257 98.1113 83.6315 98.4383C83.4374 98.7602 83.1794 99.0157 82.8575 99.2047C82.5407 99.3887 82.1882 99.4806 81.7998 99.4806ZM81.7998 98.7909C82.0553 98.7909 82.2852 98.727 82.4896 98.5993C82.6991 98.4715 82.8626 98.2953 82.9801 98.0705C83.1027 97.8456 83.164 97.5953 83.164 97.3194C83.164 97.0384 83.1027 96.7906 82.9801 96.576C82.8626 96.3563 82.6991 96.1825 82.4896 96.0548C82.2852 95.922 82.0553 95.8555 81.7998 95.8555C81.5393 95.8555 81.3042 95.922 81.0947 96.0548C80.8904 96.1825 80.7269 96.3563 80.6042 96.576C80.4816 96.7906 80.4203 97.0384 80.4203 97.3194C80.4203 97.5953 80.4816 97.8456 80.6042 98.0705C80.7269 98.2953 80.8904 98.4715 81.0947 98.5993C81.3042 98.727 81.5393 98.7909 81.7998 98.7909ZM84.6991 99.3887V95.2577H85.3966V96.0165L85.3199 95.9092C85.417 95.6742 85.5652 95.5004 85.7644 95.388C85.9637 95.2705 86.2064 95.2118 86.4925 95.2118H86.7454V95.8862H86.3852C86.094 95.8862 85.8589 95.9782 85.6801 96.1621C85.5013 96.3409 85.4119 96.5964 85.4119 96.9285V99.3887H84.6991ZM88.3967 99.3887V95.2577H89.0942V96.1008L88.9945 95.9705C89.0967 95.7099 89.2602 95.5107 89.485 95.3727C89.7098 95.2347 89.9628 95.1658 90.2438 95.1658C90.5657 95.1658 90.8543 95.2552 91.1098 95.434C91.3704 95.6128 91.5492 95.8479 91.6463 96.1391L91.447 96.1468C91.5543 95.8249 91.7357 95.5822 91.9912 95.4187C92.2467 95.2501 92.5302 95.1658 92.8419 95.1658C93.128 95.1658 93.386 95.2322 93.616 95.365C93.851 95.4979 94.0375 95.6818 94.1754 95.9169C94.3134 96.1519 94.3824 96.4176 94.3824 96.7139V99.3887H93.6619V96.9438C93.6619 96.7139 93.6211 96.5198 93.5393 96.3614C93.4576 96.203 93.3452 96.0804 93.2021 95.9935C93.0642 95.9015 92.9007 95.8555 92.7116 95.8555C92.5277 95.8555 92.3616 95.9015 92.2134 95.9935C92.0704 96.0804 91.9554 96.2055 91.8686 96.369C91.7868 96.5274 91.7459 96.719 91.7459 96.9438V99.3887H91.0255V96.9438C91.0255 96.7139 90.9846 96.5198 90.9029 96.3614C90.8211 96.203 90.7087 96.0804 90.5657 95.9935C90.4277 95.9015 90.2642 95.8555 90.0752 95.8555C89.8912 95.8555 89.7252 95.9015 89.577 95.9935C89.4339 96.0804 89.319 96.2055 89.2321 96.369C89.1504 96.5274 89.1095 96.719 89.1095 96.9438V99.3887H88.3967ZM97.2034 99.4806C96.8049 99.4806 96.4447 99.3887 96.1228 99.2047C95.8009 99.0157 95.5454 98.7577 95.3564 98.4307C95.1673 98.1037 95.0728 97.7332 95.0728 97.3194C95.0728 96.9055 95.1648 96.5376 95.3487 96.2157C95.5377 95.8939 95.7932 95.6384 96.1151 95.4493C96.437 95.2603 96.7998 95.1658 97.2034 95.1658C97.6019 95.1658 97.9621 95.2603 98.284 95.4493C98.6059 95.6333 98.8588 95.8862 99.0428 96.2081C99.2318 96.53 99.3263 96.9004 99.3263 97.3194C99.3263 97.7383 99.2293 98.1113 99.0351 98.4383C98.841 98.7602 98.5829 99.0157 98.261 99.2047C97.9443 99.3887 97.5917 99.4806 97.2034 99.4806ZM97.2034 98.7909C97.4589 98.7909 97.6888 98.727 97.8932 98.5993C98.1027 98.4715 98.2662 98.2953 98.3837 98.0705C98.5063 97.8456 98.5676 97.5953 98.5676 97.3194C98.5676 97.0384 98.5063 96.7906 98.3837 96.576C98.2662 96.3563 98.1027 96.1825 97.8932 96.0548C97.6888 95.922 97.4589 95.8555 97.2034 95.8555C96.9428 95.8555 96.7078 95.922 96.4983 96.0548C96.2939 96.1825 96.1304 96.3563 96.0078 96.576C95.8852 96.7906 95.8239 97.0384 95.8239 97.3194C95.8239 97.5953 95.8852 97.8456 96.0078 98.0705C96.1304 98.2953 96.2939 98.4715 96.4983 98.5993C96.7078 98.727 96.9428 98.7909 97.2034 98.7909ZM100.103 99.3887V95.2577H100.8V96.0165L100.723 95.9092C100.821 95.6742 100.969 95.5004 101.168 95.388C101.367 95.2705 101.61 95.2118 101.896 95.2118H102.149V95.8862H101.789C101.498 95.8862 101.263 95.9782 101.084 96.1621C100.905 96.3409 100.815 96.5964 100.815 96.9285V99.3887H100.103ZM104.53 99.4806C104.131 99.4806 103.776 99.3861 103.464 99.1971C103.153 99.008 102.907 98.75 102.728 98.423C102.55 98.0909 102.46 97.7205 102.46 97.3117C102.46 96.8979 102.547 96.53 102.721 96.2081C102.9 95.8862 103.14 95.6333 103.441 95.4493C103.748 95.2603 104.09 95.1658 104.468 95.1658C104.775 95.1658 105.046 95.222 105.281 95.3344C105.521 95.4417 105.723 95.5899 105.886 95.7789C106.055 95.9628 106.182 96.1749 106.269 96.415C106.361 96.65 106.407 96.8953 106.407 97.1508C106.407 97.207 106.402 97.2708 106.392 97.3424C106.387 97.4088 106.379 97.4727 106.369 97.534H102.981V96.9208H105.955L105.618 97.1967C105.664 96.9311 105.638 96.6935 105.541 96.484C105.444 96.2745 105.301 96.1085 105.112 95.9858C104.923 95.8632 104.708 95.8019 104.468 95.8019C104.228 95.8019 104.008 95.8632 103.809 95.9858C103.61 96.1085 103.454 96.2847 103.342 96.5146C103.234 96.7395 103.191 97.0077 103.211 97.3194C103.191 97.6208 103.237 97.8865 103.349 98.1164C103.467 98.3412 103.63 98.5175 103.84 98.6453C104.054 98.7679 104.287 98.8292 104.537 98.8292C104.813 98.8292 105.046 98.7653 105.235 98.6376C105.424 98.5099 105.577 98.3464 105.694 98.1471L106.292 98.4537C106.211 98.6427 106.083 98.8164 105.909 98.9748C105.74 99.1281 105.539 99.2507 105.304 99.3427C105.074 99.4347 104.816 99.4806 104.53 99.4806ZM45.1503 110.921V108.507L45.2653 108.63C45.1222 108.901 44.9128 109.11 44.6369 109.258C44.3661 109.407 44.0621 109.481 43.7248 109.481C43.3365 109.481 42.9865 109.386 42.6749 109.197C42.3683 109.008 42.1256 108.75 41.9468 108.423C41.7679 108.096 41.6785 107.731 41.6785 107.327C41.6785 106.913 41.7679 106.545 41.9468 106.223C42.1256 105.896 42.3683 105.638 42.6749 105.449C42.9865 105.26 43.3365 105.166 43.7248 105.166C44.0672 105.166 44.3712 105.24 44.6369 105.388C44.9025 105.531 45.112 105.725 45.2653 105.97L45.1733 106.147V105.258H45.8708V110.921H45.1503ZM43.7861 108.791C44.0467 108.791 44.2792 108.727 44.4836 108.599C44.688 108.472 44.8489 108.298 44.9664 108.078C45.089 107.853 45.1503 107.603 45.1503 107.327C45.1503 107.046 45.089 106.796 44.9664 106.576C44.8489 106.351 44.688 106.175 44.4836 106.047C44.2792 105.919 44.0467 105.856 43.7861 105.856C43.5307 105.856 43.2982 105.922 43.0887 106.055C42.8843 106.183 42.7234 106.356 42.6059 106.576C42.4884 106.791 42.4296 107.041 42.4296 107.327C42.4296 107.603 42.4884 107.853 42.6059 108.078C42.7234 108.298 42.8843 108.472 43.0887 108.599C43.2931 108.727 43.5256 108.791 43.7861 108.791ZM48.2845 109.481C47.9882 109.481 47.7199 109.412 47.4798 109.274C47.2448 109.136 47.0608 108.944 46.928 108.699C46.8003 108.449 46.7364 108.162 46.7364 107.841V105.258H47.4491V107.764C47.4491 107.968 47.49 108.147 47.5718 108.3C47.6586 108.454 47.7761 108.574 47.9243 108.661C48.0776 108.747 48.2513 108.791 48.4455 108.791C48.6396 108.791 48.8108 108.747 48.959 108.661C49.1123 108.574 49.2298 108.449 49.3115 108.285C49.3984 108.122 49.4418 107.927 49.4418 107.703V105.258H50.1622V109.389H49.4648V108.584L49.5798 108.653C49.4827 108.913 49.3166 109.118 49.0816 109.266C48.8517 109.409 48.586 109.481 48.2845 109.481ZM53.0139 109.481C52.6153 109.481 52.2602 109.386 51.9486 109.197C51.6369 109.008 51.3916 108.75 51.2128 108.423C51.034 108.091 50.9446 107.72 50.9446 107.312C50.9446 106.898 51.0314 106.53 51.2051 106.208C51.384 105.886 51.6241 105.633 51.9256 105.449C52.2321 105.26 52.5744 105.166 52.9525 105.166C53.2591 105.166 53.5299 105.222 53.7649 105.334C54.0051 105.442 54.2069 105.59 54.3704 105.779C54.539 105.963 54.6667 106.175 54.7536 106.415C54.8456 106.65 54.8916 106.895 54.8916 107.151C54.8916 107.207 54.8864 107.271 54.8762 107.342C54.8711 107.409 54.8634 107.473 54.8532 107.534H51.4657V106.921H54.4394L54.1022 107.197C54.1481 106.931 54.1226 106.693 54.0255 106.484C53.9284 106.275 53.7854 106.108 53.5963 105.986C53.4073 105.863 53.1927 105.802 52.9525 105.802C52.7124 105.802 52.4927 105.863 52.2934 105.986C52.0942 106.108 51.9383 106.285 51.8259 106.515C51.7186 106.739 51.6752 107.008 51.6956 107.319C51.6752 107.621 51.7212 107.887 51.8336 108.116C51.9511 108.341 52.1146 108.518 52.3241 108.645C52.5387 108.768 52.7712 108.829 53.0215 108.829C53.2974 108.829 53.5299 108.765 53.7189 108.638C53.908 108.51 54.0613 108.346 54.1788 108.147L54.7766 108.454C54.6948 108.643 54.5671 108.816 54.3934 108.975C54.2248 109.128 54.023 109.251 53.7879 109.343C53.558 109.435 53.3 109.481 53.0139 109.481ZM57.1468 109.481C56.7329 109.481 56.3727 109.378 56.0661 109.174C55.7596 108.97 55.5424 108.694 55.4147 108.346L55.9818 108.07C56.0993 108.316 56.2603 108.51 56.4647 108.653C56.669 108.796 56.8964 108.868 57.1468 108.868C57.3716 108.868 57.5581 108.814 57.7062 108.707C57.8544 108.599 57.9285 108.459 57.9285 108.285C57.9285 108.162 57.8927 108.065 57.8212 107.994C57.7548 107.917 57.673 107.858 57.576 107.818C57.4789 107.772 57.3895 107.738 57.3077 107.718L56.6869 107.542C56.3139 107.434 56.0406 107.281 55.8669 107.082C55.6983 106.883 55.614 106.65 55.614 106.384C55.614 106.139 55.6753 105.927 55.7979 105.748C55.9256 105.564 56.0968 105.421 56.3114 105.319C56.5311 105.217 56.7763 105.166 57.0471 105.166C57.4099 105.166 57.7343 105.258 58.0205 105.442C58.3117 105.626 58.5186 105.884 58.6413 106.216L58.0588 106.484C57.9668 106.269 57.8289 106.101 57.6449 105.978C57.461 105.85 57.2541 105.787 57.0241 105.787C56.8147 105.787 56.6486 105.84 56.526 105.948C56.4034 106.05 56.342 106.18 56.342 106.338C56.342 106.456 56.3727 106.553 56.434 106.63C56.4953 106.701 56.5694 106.757 56.6563 106.798C56.7431 106.834 56.8274 106.865 56.9092 106.89L57.5836 107.089C57.9208 107.187 58.1814 107.337 58.3654 107.542C58.5544 107.746 58.6489 107.991 58.6489 108.277C58.6489 108.507 58.5851 108.714 58.4573 108.898C58.3296 109.082 58.1533 109.225 57.9285 109.327C57.7037 109.43 57.4431 109.481 57.1468 109.481ZM61.1071 109.435C60.7035 109.435 60.3918 109.32 60.1721 109.09C59.9575 108.86 59.8502 108.535 59.8502 108.116V105.94H59.0991V105.258H59.2524C59.4363 105.258 59.582 105.202 59.6893 105.089C59.7966 104.977 59.8502 104.829 59.8502 104.645V104.307H60.563V105.258H61.4903V105.94H60.563V108.093C60.563 108.231 60.5834 108.351 60.6243 108.454C60.6703 108.556 60.7443 108.638 60.8465 108.699C60.9487 108.755 61.0841 108.783 61.2527 108.783C61.2885 108.783 61.3319 108.781 61.383 108.776C61.4392 108.77 61.4903 108.765 61.5363 108.76V109.389C61.4699 109.404 61.3958 109.414 61.314 109.419C61.2323 109.43 61.1633 109.435 61.1071 109.435ZM62.3141 109.389V105.258H63.0268V109.389H62.3141ZM62.3141 104.599V103.679H63.0268V104.599H62.3141ZM65.9415 109.481C65.543 109.481 65.1828 109.389 64.8609 109.205C64.539 109.016 64.2835 108.758 64.0945 108.431C63.9054 108.104 63.8109 107.733 63.8109 107.319C63.8109 106.906 63.9029 106.538 64.0868 106.216C64.2759 105.894 64.5313 105.638 64.8532 105.449C65.1751 105.26 65.5379 105.166 65.9415 105.166C66.34 105.166 66.7003 105.26 67.0221 105.449C67.344 105.633 67.597 105.886 67.7809 106.208C67.9699 106.53 68.0645 106.9 68.0645 107.319C68.0645 107.738 67.9674 108.111 67.7732 108.438C67.5791 108.76 67.321 109.016 66.9992 109.205C66.6824 109.389 66.3298 109.481 65.9415 109.481ZM65.9415 108.791C66.197 108.791 66.4269 108.727 66.6313 108.599C66.8408 108.472 67.0043 108.295 67.1218 108.07C67.2444 107.846 67.3057 107.595 67.3057 107.319C67.3057 107.038 67.2444 106.791 67.1218 106.576C67.0043 106.356 66.8408 106.183 66.6313 106.055C66.4269 105.922 66.197 105.856 65.9415 105.856C65.6809 105.856 65.4459 105.922 65.2364 106.055C65.032 106.183 64.8685 106.356 64.7459 106.576C64.6233 106.791 64.562 107.038 64.562 107.319C64.562 107.595 64.6233 107.846 64.7459 108.07C64.8685 108.295 65.032 108.472 65.2364 108.599C65.4459 108.727 65.6809 108.791 65.9415 108.791ZM68.8408 109.389V105.258H69.5382V106.062L69.4233 105.993C69.5255 105.733 69.689 105.531 69.9138 105.388C70.1437 105.24 70.4119 105.166 70.7185 105.166C71.0148 105.166 71.278 105.232 71.5079 105.365C71.7429 105.498 71.9269 105.682 72.0597 105.917C72.1977 106.152 72.2666 106.418 72.2666 106.714V109.389H71.5462V106.944C71.5462 106.714 71.5053 106.52 71.4236 106.361C71.3418 106.203 71.2243 106.08 71.071 105.993C70.9229 105.902 70.7517 105.856 70.5576 105.856C70.3634 105.856 70.1897 105.902 70.0364 105.993C69.8882 106.08 69.7707 106.206 69.6839 106.369C69.597 106.527 69.5536 106.719 69.5536 106.944V109.389H68.8408ZM74.6124 109.481C74.1986 109.481 73.8384 109.378 73.5318 109.174C73.2252 108.97 73.0081 108.694 72.8804 108.346L73.4475 108.07C73.565 108.316 73.726 108.51 73.9303 108.653C74.1347 108.796 74.3621 108.868 74.6124 108.868C74.8373 108.868 75.0237 108.814 75.1719 108.707C75.3201 108.599 75.3942 108.459 75.3942 108.285C75.3942 108.162 75.3584 108.065 75.2869 107.994C75.2205 107.917 75.1387 107.858 75.0416 107.818C74.9446 107.772 74.8551 107.738 74.7734 107.718L74.1526 107.542C73.7796 107.434 73.5063 107.281 73.3325 107.082C73.1639 106.883 73.0796 106.65 73.0796 106.384C73.0796 106.139 73.1409 105.927 73.2636 105.748C73.3913 105.564 73.5625 105.421 73.7771 105.319C73.9968 105.217 74.242 105.166 74.5128 105.166C74.8756 105.166 75.2 105.258 75.4861 105.442C75.7774 105.626 75.9843 105.884 76.1069 106.216L75.5245 106.484C75.4325 106.269 75.2945 106.101 75.1106 105.978C74.9267 105.85 74.7197 105.787 74.4898 105.787C74.2803 105.787 74.1143 105.84 73.9917 105.948C73.869 106.05 73.8077 106.18 73.8077 106.338C73.8077 106.456 73.8384 106.553 73.8997 106.63C73.961 106.701 74.0351 106.757 74.1219 106.798C74.2088 106.834 74.2931 106.865 74.3749 106.89L75.0493 107.089C75.3865 107.187 75.6471 107.337 75.831 107.542C76.0201 107.746 76.1146 107.991 76.1146 108.277C76.1146 108.507 76.0507 108.714 75.923 108.898C75.7953 109.082 75.619 109.225 75.3942 109.327C75.1694 109.43 74.9088 109.481 74.6124 109.481ZM77.1856 109.389V108.469H77.929V109.389H77.1856Z" fill="white"/>
</g>
<g filter="url(#filter0_f_20333_5114)">
<rect x="44.707" y="5.10938" width="30.6562" height="28.1016" rx="14.0508" fill="#7676B2"/>
</g>
<rect x="45.9844" y="1.27734" width="28.1016" height="28.1016" rx="14.0508" fill="#232340" stroke="#F5F5F5" stroke-width="2.55469"/>
<path d="M58.7285 17.1788L58.1563 14.8362C58.502 14.7527 58.8299 14.6574 59.1398 14.5501C59.4498 14.4308 59.7359 14.3057 59.9982 14.1745C60.2605 14.0434 60.481 13.8944 60.6599 13.7274C60.8506 13.5486 60.9996 13.3579 61.1069 13.1552C61.2142 12.9406 61.2679 12.7141 61.2679 12.4756C61.2679 12.2372 61.2083 12.0345 61.0891 11.8676C60.9698 11.6888 60.8089 11.5517 60.6062 11.4563C60.4035 11.361 60.1651 11.3133 59.8909 11.3133C59.4975 11.3133 59.1041 11.4563 58.7106 11.7425C58.3172 12.0167 57.9536 12.4637 57.6198 13.0837L55.6706 11.2775C56.207 10.4549 56.8449 9.81707 57.584 9.36404C58.3351 8.91101 59.116 8.68449 59.9267 8.68449C60.7135 8.68449 61.4229 8.84544 62.0547 9.16733C62.6866 9.4773 63.1873 9.91244 63.5569 10.4728C63.9265 11.0212 64.1113 11.6411 64.1113 12.3326C64.1113 12.7737 64.0159 13.2088 63.8251 13.638C63.6463 14.0672 63.39 14.4726 63.0562 14.8541C62.7343 15.2236 62.3528 15.5515 61.9117 15.8376C61.4706 16.1237 60.9818 16.3443 60.4453 16.4993L60.2664 17.1788H58.7285ZM58.0847 20.0758C58.0847 19.599 58.2278 19.2115 58.5139 18.9135C58.8001 18.6154 59.1696 18.4664 59.6227 18.4664C60.1115 18.4664 60.493 18.6095 60.7672 18.8956C61.0414 19.1698 61.1785 19.5632 61.1785 20.0758C61.1785 20.5408 61.0354 20.9223 60.7493 21.2203C60.4632 21.5184 60.0876 21.6674 59.6227 21.6674C59.1339 21.6674 58.7524 21.5303 58.4782 21.2561C58.2159 20.9819 58.0847 20.5885 58.0847 20.0758Z" fill="#F5F5F5"/>
<defs>
<filter id="filter0_f_20333_5114" x="29.3789" y="-10.2188" width="61.3125" height="58.7578" filterUnits="userSpaceOnUse" color-interpolation-filters="sRGB">
<feFlood flood-opacity="0" result="BackgroundImageFix"/>
<feBlend mode="normal" in="SourceGraphic" in2="BackgroundImageFix" result="shape"/>
<feGaussianBlur stdDeviation="7.66406" result="effect1_foregroundBlur_20333_5114"/>
</filter>
<clipPath id="clip0_20333_5114">
<rect y="16.6055" width="120.07" height="158.391" rx="6.38672" fill="white"/>
</clipPath>
</defs>
</svg>
