<svg width="124" height="137" viewBox="0 0 124 137" fill="none" xmlns="http://www.w3.org/2000/svg">
<rect width="123.902" height="136.676" rx="6.38672" fill="#232340"/>
<path d="M18.9251 62.5656C17.9305 62.5656 17.0449 62.3476 16.2683 61.9116C15.4916 61.4756 14.8785 60.8761 14.4289 60.1131C13.9929 59.3501 13.7749 58.4849 13.7749 57.5175C13.7749 57.0134 13.8294 56.5092 13.9384 56.0051C14.0474 55.501 14.2381 54.9764 14.5106 54.4314C14.7968 53.8864 15.1783 53.3006 15.6551 52.6738L19.9061 47.0944H22.7878L17.5763 53.8387L17.1675 53.5731C17.3583 53.3551 17.5626 53.1847 17.7806 53.0621C18.0123 52.9395 18.2507 52.8509 18.4959 52.7964C18.7548 52.7419 19.0273 52.7147 19.3134 52.7147C20.2263 52.7147 21.0438 52.9259 21.7659 53.3482C22.4881 53.7706 23.0535 54.3429 23.4623 55.065C23.8846 55.7871 24.0958 56.6182 24.0958 57.5584C24.0958 58.5121 23.871 59.3705 23.4214 60.1335C22.9718 60.8829 22.3586 61.4756 21.582 61.9116C20.819 62.3476 19.9334 62.5656 18.9251 62.5656ZM18.9251 60.4196C19.4565 60.4196 19.9266 60.297 20.3353 60.0517C20.7441 59.8065 21.0711 59.4727 21.3163 59.0503C21.5616 58.6143 21.6842 58.1238 21.6842 57.5788C21.6842 57.0202 21.5616 56.5297 21.3163 56.1073C21.0847 55.6849 20.7577 55.3579 20.3353 55.1263C19.9266 54.8811 19.4565 54.7584 18.9251 54.7584C18.4074 54.7584 17.9373 54.8811 17.5149 55.1263C17.1062 55.3579 16.7792 55.6849 16.5339 56.1073C16.2887 56.5297 16.1661 57.0202 16.1661 57.5788C16.1661 58.1238 16.2887 58.6143 16.5339 59.0503C16.7792 59.4727 17.1062 59.8065 17.5149 60.0517C17.9373 60.297 18.4074 60.4196 18.9251 60.4196ZM30.5456 62.5656C29.7417 62.5656 28.9855 62.4225 28.277 62.1364C27.5685 61.8366 26.9554 61.4211 26.4377 60.8897C25.9199 60.3583 25.552 59.7179 25.334 58.9686L27.3574 58.1919C27.6162 58.9141 28.0386 59.4659 28.6245 59.8474C29.2104 60.2289 29.8507 60.4196 30.5456 60.4196C31.1179 60.4196 31.622 60.2902 32.058 60.0313C32.494 59.7724 32.8346 59.4182 33.0799 58.9686C33.3387 58.5189 33.4682 58.008 33.4682 57.4357C33.4682 56.8499 33.3387 56.3389 33.0799 55.9029C32.8346 55.4533 32.494 55.1059 32.058 54.8606C31.622 54.6017 31.1179 54.4723 30.5456 54.4723C29.9734 54.4723 29.4488 54.6017 28.9719 54.8606C28.495 55.1195 28.1476 55.4669 27.9296 55.9029L25.988 55.4737L27.1734 47.0944H35.2871V49.1381H28.1135L29.0332 48.1367L28.1544 54.5541L27.3982 54.0431C27.807 53.4709 28.3043 53.0553 28.8902 52.7964C29.476 52.5376 30.1437 52.4081 30.893 52.4081C31.8877 52.4081 32.7529 52.6329 33.4886 53.0826C34.238 53.5186 34.817 54.1181 35.2258 54.8811C35.6482 55.6304 35.8594 56.482 35.8594 57.4357C35.8594 58.4031 35.6277 59.2751 35.1645 60.0517C34.7012 60.8284 34.0677 61.4415 33.2638 61.8911C32.4735 62.3407 31.5675 62.5656 30.5456 62.5656Z" fill="#F5F5F5"/>
<path d="M13.5603 24.7734V17.1605H16.3296C16.8405 17.1605 17.2901 17.2558 17.6784 17.4466C18.0668 17.6305 18.3699 17.903 18.5879 18.2641C18.8127 18.6183 18.9251 19.0441 18.9251 19.5414C18.9251 20.066 18.7923 20.5156 18.5266 20.8903C18.2677 21.265 17.9169 21.5375 17.4741 21.7078L19.2317 24.7734H17.8624L15.9923 21.4523L16.7792 21.9122H14.7661V24.7734H13.5603ZM14.7661 20.8392H16.35C16.6293 20.8392 16.8712 20.7847 17.0755 20.6757C17.2799 20.5667 17.4366 20.4168 17.5456 20.2261C17.6614 20.0285 17.7193 19.7969 17.7193 19.5312C17.7193 19.2655 17.6614 19.0373 17.5456 18.8466C17.4366 18.649 17.2799 18.4991 17.0755 18.3969C16.8712 18.2879 16.6293 18.2334 16.35 18.2334H14.7661V20.8392ZM21.9018 24.8961C21.4863 24.8961 21.1218 24.8041 20.8084 24.6202C20.495 24.4294 20.2498 24.1671 20.0727 23.8333C19.9023 23.4927 19.8172 23.101 19.8172 22.6582V19.2451H20.9719V22.556C20.9719 22.808 21.023 23.0294 21.1252 23.2202C21.2274 23.4109 21.3704 23.5608 21.5544 23.6698C21.7383 23.772 21.9495 23.8231 22.1879 23.8231C22.4332 23.8231 22.6478 23.7686 22.8317 23.6596C23.0157 23.5506 23.1587 23.3973 23.2609 23.1997C23.3699 23.0022 23.4244 22.7706 23.4244 22.5049V19.2451H24.5689V24.7734H23.4755V23.6902L23.5981 23.8333C23.4687 24.1739 23.2541 24.4362 22.9543 24.6202C22.6546 24.8041 22.3038 24.8961 21.9018 24.8961ZM25.7128 24.7734V19.2451H26.8164V20.3283L26.6836 20.1852C26.8198 19.8378 27.0378 19.5755 27.3376 19.3984C27.6373 19.2144 27.9847 19.1225 28.3799 19.1225C28.7886 19.1225 29.1497 19.211 29.4631 19.3882C29.7764 19.5653 30.0217 19.8105 30.1988 20.1239C30.3759 20.4373 30.4645 20.7983 30.4645 21.2071V24.7734H29.32V21.5137C29.32 21.2343 29.2689 20.9993 29.1667 20.8086C29.0645 20.611 28.9181 20.4611 28.7273 20.3589C28.5434 20.2499 28.3322 20.1954 28.0937 20.1954C27.8553 20.1954 27.6407 20.2499 27.45 20.3589C27.266 20.4611 27.123 20.611 27.0208 20.8086C26.9186 21.0061 26.8675 21.2412 26.8675 21.5137V24.7734H25.7128ZM31.4959 24.7734V19.2451H32.5996V20.3283L32.4667 20.1852C32.603 19.8378 32.821 19.5755 33.1207 19.3984C33.4205 19.2144 33.7679 19.1225 34.163 19.1225C34.5718 19.1225 34.9329 19.211 35.2462 19.3882C35.5596 19.5653 35.8049 19.8105 35.982 20.1239C36.1591 20.4373 36.2477 20.7983 36.2477 21.2071V24.7734H35.1032V21.5137C35.1032 21.2343 35.0521 20.9993 34.9499 20.8086C34.8477 20.611 34.7012 20.4611 34.5105 20.3589C34.3265 20.2499 34.1154 20.1954 33.8769 20.1954C33.6385 20.1954 33.4239 20.2499 33.2331 20.3589C33.0492 20.4611 32.9061 20.611 32.8039 20.8086C32.7018 21.0061 32.6507 21.2412 32.6507 21.5137V24.7734H31.4959ZM37.2791 24.7734V19.2451H38.4338V24.7734H37.2791ZM37.2791 18.4889V17.1605H38.4338V18.4889H37.2791ZM39.5795 24.7734V19.2451H40.6832V20.3283L40.5503 20.1852C40.6866 19.8378 40.9046 19.5755 41.2043 19.3984C41.5041 19.2144 41.8515 19.1225 42.2466 19.1225C42.6554 19.1225 43.0164 19.211 43.3298 19.3882C43.6432 19.5653 43.8884 19.8105 44.0656 20.1239C44.2427 20.4373 44.3313 20.7983 44.3313 21.2071V24.7734H43.1868V21.5137C43.1868 21.2343 43.1357 20.9993 43.0335 20.8086C42.9313 20.611 42.7848 20.4611 42.5941 20.3589C42.4101 20.2499 42.1989 20.1954 41.9605 20.1954C41.7221 20.1954 41.5075 20.2499 41.3167 20.3589C41.1328 20.4611 40.9897 20.611 40.8875 20.8086C40.7853 21.0061 40.7343 21.2412 40.7343 21.5137V24.7734H39.5795ZM48.0298 27.0216C47.6279 27.0216 47.2566 26.9568 46.916 26.8274C46.5753 26.698 46.2824 26.5174 46.0371 26.2858C45.7919 26.061 45.608 25.7953 45.4853 25.4888L46.5481 25.0493C46.6435 25.3082 46.8172 25.5228 47.0692 25.6931C47.3281 25.8634 47.6449 25.9486 48.0196 25.9486C48.3125 25.9486 48.5748 25.8907 48.8064 25.7749C49.0381 25.6659 49.222 25.5024 49.3582 25.2844C49.4945 25.0732 49.5626 24.8177 49.5626 24.518V23.2713L49.767 23.5063C49.5762 23.8606 49.3106 24.1297 48.9699 24.3136C48.6361 24.4975 48.258 24.5895 47.8356 24.5895C47.3247 24.5895 46.8649 24.4703 46.4561 24.2318C46.0474 23.9934 45.7238 23.6664 45.4853 23.2508C45.2537 22.8353 45.1379 22.3686 45.1379 21.8509C45.1379 21.3263 45.2537 20.8597 45.4853 20.4509C45.7238 20.0422 46.044 19.7186 46.4459 19.4801C46.8478 19.2417 47.3077 19.1225 47.8254 19.1225C48.2478 19.1225 48.6225 19.2144 48.9495 19.3984C49.2833 19.5755 49.5558 19.8344 49.767 20.175L49.6137 20.4611V19.2451H50.7071V24.518C50.7071 24.9948 50.5913 25.4206 50.3597 25.7953C50.1349 26.1768 49.8215 26.4766 49.4196 26.6946C49.0176 26.9126 48.5544 27.0216 48.0298 27.0216ZM47.9685 23.5165C48.2751 23.5165 48.5476 23.445 48.786 23.3019C49.0244 23.1521 49.2118 22.9545 49.348 22.7092C49.4911 22.4572 49.5626 22.1745 49.5626 21.8611C49.5626 21.5477 49.4911 21.265 49.348 21.0129C49.205 20.7609 49.0142 20.5633 48.7758 20.4202C48.5373 20.2704 48.2682 20.1954 47.9685 20.1954C47.6551 20.1954 47.3758 20.2704 47.1306 20.4202C46.8853 20.5633 46.6911 20.7609 46.5481 21.0129C46.4118 21.2582 46.3437 21.5409 46.3437 21.8611C46.3437 22.1677 46.4118 22.447 46.5481 22.699C46.6911 22.9511 46.8853 23.1521 47.1306 23.3019C47.3758 23.445 47.6551 23.5165 47.9685 23.5165ZM54.8976 24.7734V18.2334H52.8743V17.1605H58.0859V18.2334H56.0932V24.7734H54.8976ZM59.7173 24.8961C59.3427 24.8961 59.0122 24.8313 58.7261 24.7019C58.4468 24.5657 58.2288 24.3817 58.0721 24.1501C57.9154 23.9117 57.8371 23.6323 57.8371 23.3122C57.8371 23.0124 57.9018 22.7433 58.0312 22.5049C58.1675 22.2664 58.3753 22.0655 58.6546 21.902C58.9339 21.7385 59.2847 21.6227 59.7071 21.5545L61.6282 21.2377V22.1472L59.9319 22.4436C59.6254 22.4981 59.4006 22.5968 59.2575 22.7399C59.1144 22.8762 59.0429 23.0533 59.0429 23.2713C59.0429 23.4825 59.1212 23.6562 59.2779 23.7924C59.4414 23.9219 59.6492 23.9866 59.9013 23.9866C60.2147 23.9866 60.4872 23.9185 60.7188 23.7822C60.9572 23.646 61.1412 23.4654 61.2706 23.2406C61.4 23.009 61.4647 22.7535 61.4647 22.4742V21.0538C61.4647 20.7813 61.3626 20.5599 61.1582 20.3896C60.9606 20.2125 60.6949 20.1239 60.3611 20.1239C60.0546 20.1239 59.7855 20.2057 59.5538 20.3692C59.329 20.5258 59.1621 20.7302 59.0531 20.9823L58.0926 20.502C58.1947 20.2295 58.3617 19.9911 58.5933 19.7867C58.8249 19.5755 59.094 19.412 59.4006 19.2962C59.7139 19.1804 60.0443 19.1225 60.3918 19.1225C60.8278 19.1225 61.2127 19.2042 61.5465 19.3677C61.8871 19.5312 62.1494 19.7594 62.3333 20.0524C62.5241 20.3385 62.6195 20.6723 62.6195 21.0538V24.7734H61.5158V23.772L61.7509 23.8027C61.6214 24.0275 61.4545 24.2216 61.2502 24.3851C61.0526 24.5486 60.8244 24.6747 60.5655 24.7632C60.3134 24.8518 60.0307 24.8961 59.7173 24.8961ZM65.809 24.8961C65.2436 24.8961 64.7462 24.7564 64.3171 24.4771C63.8947 24.1978 63.5983 23.8231 63.428 23.353L64.3171 22.9341C64.4669 23.2474 64.6713 23.4961 64.9302 23.68C65.1959 23.864 65.4888 23.9559 65.809 23.9559C66.0815 23.9559 66.3029 23.8946 66.4732 23.772C66.6435 23.6494 66.7287 23.4825 66.7287 23.2713C66.7287 23.135 66.6912 23.026 66.6163 22.9443C66.5413 22.8557 66.446 22.7842 66.3301 22.7297C66.2211 22.6752 66.1087 22.6343 65.9929 22.6071L65.1243 22.3618C64.6475 22.2256 64.2898 22.0212 64.0514 21.7487C63.8197 21.4694 63.7039 21.1458 63.7039 20.7779C63.7039 20.4441 63.7891 20.1546 63.9594 19.9093C64.1297 19.6572 64.3647 19.4631 64.6645 19.3268C64.9642 19.1906 65.3015 19.1225 65.6761 19.1225C66.1803 19.1225 66.6299 19.2485 67.025 19.5006C67.4201 19.7458 67.6995 20.0898 67.863 20.5327L66.9739 20.9516C66.8649 20.6859 66.6912 20.4747 66.4528 20.3181C66.2211 20.1614 65.9589 20.083 65.6659 20.083C65.4139 20.083 65.2129 20.1443 65.063 20.267C64.9131 20.3828 64.8382 20.5361 64.8382 20.7268C64.8382 20.8562 64.8723 20.9652 64.9404 21.0538C65.0085 21.1356 65.0971 21.2037 65.2061 21.2582C65.3151 21.3059 65.4275 21.3467 65.5433 21.3808L66.4426 21.6465C66.899 21.7759 67.2498 21.9803 67.4951 22.2596C67.7403 22.5321 67.863 22.8591 67.863 23.2406C67.863 23.5676 67.7744 23.8572 67.5973 24.1092C67.427 24.3545 67.1885 24.5486 66.882 24.6917C66.5754 24.8279 66.2177 24.8961 65.809 24.8961ZM68.79 24.7734V17.0378H69.9447V22.2188L69.4951 22.1063L72.2644 19.2451H73.7052L71.6206 21.4626L73.7972 24.7734H72.4687L70.5272 21.8407L71.2118 21.7487L69.5768 23.4859L69.9447 22.7195V24.7734H68.79Z" fill="white"/>
<path d="M69.9473 99.2207V90.9818H68.1207V89.7045H71.4418V99.2207H69.9473ZM77.0315 99.374C76.2736 99.374 75.6094 99.1696 75.0389 98.7609C74.4683 98.3436 74.0212 97.7688 73.6976 97.0364C73.3826 96.2956 73.225 95.4355 73.225 94.4562C73.225 93.4684 73.3826 92.6083 73.6976 91.876C74.0212 91.1436 74.4641 90.5731 75.0261 90.1643C75.5966 89.7556 76.2608 89.5512 77.0187 89.5512C77.7766 89.5512 78.4366 89.7556 78.9986 90.1643C79.5692 90.5731 80.012 91.1479 80.3271 91.8887C80.6507 92.6211 80.8124 93.4769 80.8124 94.4562C80.8124 95.4355 80.6549 96.2956 80.3398 97.0364C80.0248 97.7688 79.5819 98.3436 79.0114 98.7609C78.4494 99.1696 77.7894 99.374 77.0315 99.374ZM77.0315 97.9945C77.4999 97.9945 77.9044 97.8497 78.245 97.5602C78.5856 97.2706 78.8496 96.8619 79.0369 96.3339C79.2243 95.8059 79.318 95.18 79.318 94.4562C79.318 93.7324 79.2243 93.1065 79.0369 92.5785C78.8496 92.0505 78.5856 91.6418 78.245 91.3523C77.9044 91.0627 77.4956 90.918 77.0187 90.918C76.5504 90.918 76.1459 91.0627 75.8053 91.3523C75.4646 91.6418 75.2007 92.0505 75.0133 92.5785C74.826 93.1065 74.7323 93.7324 74.7323 94.4562C74.7323 95.1715 74.826 95.7974 75.0133 96.3339C75.2007 96.8619 75.4646 97.2706 75.8053 97.5602C76.1544 97.8497 76.5632 97.9945 77.0315 97.9945ZM85.9195 99.374C85.1616 99.374 84.4974 99.1696 83.9269 98.7609C83.3563 98.3436 82.9093 97.7688 82.5857 97.0364C82.2706 96.2956 82.113 95.4355 82.113 94.4562C82.113 93.4684 82.2706 92.6083 82.5857 91.876C82.9093 91.1436 83.3521 90.5731 83.9141 90.1643C84.4846 89.7556 85.1489 89.5512 85.9068 89.5512C86.6646 89.5512 87.3246 89.7556 87.8866 90.1643C88.4572 90.5731 88.9 91.1479 89.2151 91.8887C89.5387 92.6211 89.7005 93.4769 89.7005 94.4562C89.7005 95.4355 89.5429 96.2956 89.2278 97.0364C88.9128 97.7688 88.47 98.3436 87.8994 98.7609C87.3374 99.1696 86.6774 99.374 85.9195 99.374ZM85.9195 97.9945C86.3879 97.9945 86.7924 97.8497 87.133 97.5602C87.4736 97.2706 87.7376 96.8619 87.925 96.3339C88.1123 95.8059 88.206 95.18 88.206 94.4562C88.206 93.7324 88.1123 93.1065 87.925 92.5785C87.7376 92.0505 87.4736 91.6418 87.133 91.3523C86.7924 91.0627 86.3836 90.918 85.9068 90.918C85.4384 90.918 85.0339 91.0627 84.6933 91.3523C84.3527 91.6418 84.0887 92.0505 83.9013 92.5785C83.714 93.1065 83.6203 93.7324 83.6203 94.4562C83.6203 95.1715 83.714 95.7974 83.9013 96.3339C84.0887 96.8619 84.3527 97.2706 84.6933 97.5602C85.0424 97.8497 85.4512 97.9945 85.9195 97.9945Z" fill="#F5F5F5"/>
<path d="M69.6037 114.104V108.247H67.7976V107.442H72.2683V108.247H70.4889V114.104H69.6037ZM73.7158 114.211C73.3999 114.211 73.1197 114.154 72.8753 114.041C72.6369 113.922 72.4491 113.761 72.312 113.558C72.1749 113.349 72.1064 113.111 72.1064 112.843C72.1064 112.586 72.16 112.357 72.2673 112.154C72.3806 111.946 72.5534 111.77 72.7859 111.627C73.0243 111.484 73.3224 111.382 73.68 111.323L75.4683 111.028V111.725L73.8678 111.993C73.5578 112.047 73.3313 112.145 73.1883 112.288C73.0512 112.431 72.9826 112.607 72.9826 112.816C72.9826 113.013 73.0601 113.177 73.2151 113.308C73.376 113.439 73.5757 113.504 73.8142 113.504C74.1182 113.504 74.3805 113.442 74.601 113.317C74.8275 113.186 75.0034 113.01 75.1285 112.789C75.2597 112.569 75.3253 112.324 75.3253 112.056V110.831C75.3253 110.569 75.2269 110.357 75.0302 110.196C74.8394 110.029 74.5861 109.946 74.2702 109.946C73.996 109.946 73.7516 110.017 73.537 110.16C73.3283 110.297 73.1734 110.482 73.072 110.715L72.3478 110.339C72.4372 110.119 72.5802 109.922 72.777 109.749C72.9737 109.57 73.2032 109.43 73.4654 109.329C73.7277 109.227 74.0019 109.177 74.2881 109.177C74.6576 109.177 74.9825 109.248 75.2627 109.391C75.5428 109.528 75.7604 109.722 75.9154 109.973C76.0763 110.217 76.1568 110.503 76.1568 110.831V114.104H75.3431V113.191L75.4951 113.245C75.3938 113.436 75.2567 113.603 75.0838 113.746C74.911 113.889 74.7083 114.002 74.4758 114.086C74.2434 114.169 73.99 114.211 73.7158 114.211ZM78.993 114.211C78.5101 114.211 78.0899 114.092 77.7322 113.853C77.3746 113.615 77.1212 113.293 76.9722 112.887L77.6339 112.566C77.771 112.852 77.9588 113.078 78.1972 113.245C78.4356 113.412 78.7009 113.495 78.993 113.495C79.2553 113.495 79.4728 113.433 79.6457 113.308C79.8186 113.183 79.905 113.019 79.905 112.816C79.905 112.673 79.8633 112.56 79.7798 112.476C79.7023 112.387 79.607 112.318 79.4937 112.271C79.3804 112.217 79.2761 112.178 79.1808 112.154L78.4565 111.949C78.0214 111.823 77.7024 111.645 77.4998 111.412C77.3031 111.18 77.2047 110.908 77.2047 110.598C77.2047 110.312 77.2762 110.065 77.4193 109.856C77.5683 109.642 77.768 109.475 78.0184 109.356C78.2747 109.236 78.5608 109.177 78.8767 109.177C79.3 109.177 79.6785 109.284 80.0123 109.499C80.3521 109.713 80.5935 110.014 80.7366 110.402L80.057 110.715C79.9497 110.464 79.7888 110.268 79.5742 110.125C79.3596 109.976 79.1182 109.901 78.8499 109.901C78.6055 109.901 78.4118 109.964 78.2687 110.089C78.1257 110.208 78.0541 110.36 78.0541 110.545C78.0541 110.682 78.0899 110.795 78.1614 110.885C78.233 110.968 78.3194 111.034 78.4207 111.081C78.5221 111.123 78.6204 111.159 78.7158 111.189L79.5026 111.421C79.8961 111.534 80.2001 111.71 80.4147 111.949C80.6352 112.187 80.7455 112.473 80.7455 112.807C80.7455 113.075 80.671 113.317 80.522 113.531C80.3729 113.746 80.1673 113.913 79.905 114.032C79.6427 114.151 79.3387 114.211 78.993 114.211ZM81.6552 114.104V107.335H82.4868V111.975L82.147 111.895L84.7042 109.284H85.7683L83.9174 111.224L85.8934 114.104H84.9099L83.1037 111.493L83.6223 111.466L82.2185 112.932L82.4868 112.324V114.104H81.6552Z" fill="#7676B2"/>
</svg>
