<svg width="54" height="48" viewBox="0 0 54 48" fill="none" xmlns="http://www.w3.org/2000/svg">
<g filter="url(#filter0_d_20333_5192)">
<path d="M25.8388 28.8228C26.3497 29.4423 27.2987 29.4423 27.8096 28.8228L30.6314 25.4016C31.3186 24.5685 30.7259 23.3115 29.646 23.3115H24.0025C22.9225 23.3115 22.3299 24.5685 23.017 25.4016L25.8388 28.8228Z" fill="#232340"/>
</g>
<rect width="53.6484" height="25.5469" rx="6.38672" fill="#232340"/>
<path d="M14.7428 16.1094V15.3494L16.5669 13.4001C16.9245 13.0186 17.2047 12.7116 17.4074 12.4792C17.616 12.2407 17.765 12.0321 17.8545 11.8533C17.9498 11.6744 17.9975 11.4867 17.9975 11.29C17.9975 10.9681 17.8992 10.7207 17.7024 10.5478C17.5057 10.369 17.2524 10.2796 16.9424 10.2796C16.6205 10.2796 16.3434 10.372 16.1109 10.5568C15.8784 10.7356 15.7175 10.9979 15.628 11.3436L14.6981 11.0754C14.7697 10.7237 14.9127 10.4197 15.1273 10.1633C15.3419 9.90106 15.6042 9.69839 15.9142 9.55532C16.2301 9.41226 16.5699 9.34073 16.9335 9.34073C17.3567 9.34073 17.7263 9.4212 18.0422 9.58215C18.3582 9.73713 18.6025 9.95471 18.7754 10.2349C18.9542 10.515 19.0437 10.8399 19.0437 11.2095C19.0437 11.4539 18.996 11.6923 18.9006 11.9248C18.8112 12.1513 18.6711 12.3927 18.4803 12.6491C18.2896 12.8994 18.0452 13.1826 17.7472 13.4985L16.1377 15.2152H19.1688V16.1094H14.7428ZM22.7138 16.1094V10.3869H20.9434V9.44803H25.5035V10.3869H23.7599V16.1094H22.7138ZM26.931 16.2167C26.6032 16.2167 26.3141 16.16 26.0637 16.0468C25.8193 15.9276 25.6286 15.7666 25.4915 15.5639C25.3544 15.3553 25.2858 15.1109 25.2858 14.8308C25.2858 14.5685 25.3424 14.333 25.4557 14.1244C25.5749 13.9157 25.7567 13.7399 26.0011 13.5968C26.2455 13.4538 26.5525 13.3524 26.9221 13.2928L28.6031 13.0156V13.8114L27.1188 14.0707C26.8506 14.1184 26.6538 14.2049 26.5287 14.33C26.4035 14.4493 26.3409 14.6042 26.3409 14.795C26.3409 14.9798 26.4094 15.1318 26.5465 15.251C26.6896 15.3643 26.8714 15.4209 27.092 15.4209C27.3662 15.4209 27.6046 15.3613 27.8073 15.2421C28.0159 15.1228 28.1769 14.9649 28.2901 14.7682C28.4034 14.5655 28.46 14.342 28.46 14.0976V12.8547C28.46 12.6163 28.3706 12.4225 28.1918 12.2735C28.0189 12.1185 27.7864 12.041 27.4943 12.041C27.2261 12.041 26.9906 12.1126 26.788 12.2556C26.5913 12.3927 26.4452 12.5716 26.3498 12.7921L25.5093 12.3719C25.5988 12.1334 25.7448 11.9248 25.9475 11.746C26.1501 11.5612 26.3856 11.4181 26.6538 11.3168C26.928 11.2154 27.2172 11.1648 27.5212 11.1648C27.9027 11.1648 28.2395 11.2363 28.5315 11.3794C28.8296 11.5224 29.0591 11.7221 29.22 11.9784C29.3869 12.2288 29.4704 12.5209 29.4704 12.8547V16.1094H28.5047V15.2331L28.7104 15.2599C28.5971 15.4567 28.4511 15.6265 28.2722 15.7696C28.0994 15.9127 27.8997 16.0229 27.6732 16.1004C27.4526 16.1779 27.2052 16.2167 26.931 16.2167ZM32.2612 16.2167C31.7665 16.2167 31.3313 16.0945 30.9558 15.8501C30.5862 15.6057 30.3269 15.2778 30.1779 14.8665L30.9558 14.4999C31.0869 14.7741 31.2657 14.9917 31.4923 15.1526C31.7247 15.3136 31.9811 15.3941 32.2612 15.3941C32.4997 15.3941 32.6934 15.3404 32.8424 15.2331C32.9914 15.1258 33.0659 14.9798 33.0659 14.795C33.0659 14.6758 33.0332 14.5804 32.9676 14.5089C32.902 14.4314 32.8186 14.3688 32.7172 14.3211C32.6219 14.2734 32.5235 14.2376 32.4222 14.2138L31.6621 13.9992C31.2449 13.88 30.9319 13.7012 30.7233 13.4627C30.5206 13.2183 30.4193 12.9352 30.4193 12.6133C30.4193 12.3212 30.4938 12.0679 30.6428 11.8533C30.7919 11.6327 30.9975 11.4628 31.2598 11.3436C31.5221 11.2244 31.8171 11.1648 32.145 11.1648C32.5861 11.1648 32.9795 11.2751 33.3253 11.4956C33.671 11.7102 33.9154 12.0112 34.0584 12.3987L33.2805 12.7653C33.1852 12.5328 33.0332 12.348 32.8245 12.2109C32.6219 12.0738 32.3924 12.0053 32.136 12.0053C31.9155 12.0053 31.7396 12.0589 31.6085 12.1662C31.4774 12.2676 31.4118 12.4017 31.4118 12.5686C31.4118 12.6818 31.4416 12.7772 31.5012 12.8547C31.5608 12.9262 31.6383 12.9858 31.7337 13.0335C31.8291 13.0753 31.9274 13.111 32.0287 13.1408L32.8156 13.3733C33.215 13.4866 33.522 13.6654 33.7366 13.9098C33.9511 14.1482 34.0584 14.4344 34.0584 14.7682C34.0584 15.0543 33.981 15.3076 33.826 15.5282C33.6769 15.7428 33.4683 15.9127 33.2001 16.0378C32.9318 16.1571 32.6189 16.2167 32.2612 16.2167ZM34.8696 16.1094V9.34073H35.88V13.874L35.4866 13.7757L37.9097 11.2721H39.1704L37.3464 13.2124L39.2509 16.1094H38.0885L36.3896 13.5432L36.9887 13.4627L35.5581 14.9828L35.88 14.3122V16.1094H34.8696Z" fill="white"/>
<defs>
<filter id="filter0_d_20333_5192" x="6.75586" y="9.89941" width="40.1367" height="37.9095" filterUnits="userSpaceOnUse" color-interpolation-filters="sRGB">
<feFlood flood-opacity="0" result="BackgroundImageFix"/>
<feColorMatrix in="SourceAlpha" type="matrix" values="0 0 0 0 0 0 0 0 0 0 0 0 0 0 0 0 0 0 127 0" result="hardAlpha"/>
<feOffset dy="2.55469"/>
<feGaussianBlur stdDeviation="7.9834"/>
<feColorMatrix type="matrix" values="0 0 0 0 0 0 0 0 0 0 0 0 0 0 0 0 0 0 0.1 0"/>
<feBlend mode="normal" in2="BackgroundImageFix" result="effect1_dropShadow_20333_5192"/>
<feBlend mode="normal" in="SourceGraphic" in2="effect1_dropShadow_20333_5192" result="shape"/>
</filter>
</defs>
</svg>
